<svg width="178" height="35" viewBox="0 0 178 35" fill="none" xmlns="http://www.w3.org/2000/svg">
<path d="M35.729 19.247L35.756 17.141L35.999 5.855C35.999 5.639 36.116 5.468 36.35 5.342C36.584 5.216 36.881 5.153 37.241 5.153C38.105 5.153 38.537 5.459 38.537 6.071C38.537 6.269 38.429 7.781 38.213 10.607C38.015 13.433 37.916 15.125 37.916 15.683C37.916 15.683 37.916 16.637 37.916 18.545C37.916 19.895 38.006 20.633 38.186 20.759C38.456 20.849 38.771 20.894 39.131 20.894L43.019 20.624C43.865 20.624 44.288 20.93 44.288 21.542C44.288 22.028 44.054 22.388 43.586 22.622C43.136 22.838 42.686 22.964 42.236 23C41.786 23.018 41.237 23.027 40.589 23.027C37.763 23.027 36.233 22.937 35.999 22.757C35.873 22.649 35.801 22.244 35.783 21.542C35.765 20.822 35.747 20.318 35.729 20.03C35.729 19.742 35.729 19.481 35.729 19.247ZM49.9599 10.499C50.9139 10.499 51.8229 10.778 52.6869 11.336C53.5509 11.894 53.9829 12.587 53.9829 13.415C53.9829 14.225 53.6319 15.017 52.9299 15.791C52.2279 16.547 51.2919 17.006 50.1219 17.168C49.6179 17.24 48.8619 17.276 47.8539 17.276C48.0519 18.806 48.4389 19.814 49.0149 20.3C49.1949 20.498 49.4379 20.597 49.7439 20.597C50.8599 20.597 51.7959 20.246 52.5519 19.544C53.3079 18.824 53.8479 18.464 54.1719 18.464C54.3159 18.464 54.5319 18.599 54.8199 18.869C55.1079 19.139 55.2519 19.391 55.2519 19.625C55.2519 20.093 54.6849 20.768 53.5509 21.65C53.0469 22.064 52.4349 22.415 51.7149 22.703C51.0129 22.973 50.3559 23.108 49.7439 23.108C48.1779 23.108 47.0259 22.1 46.2879 20.084C45.8199 18.842 45.5859 17.474 45.5859 15.98C45.5859 14.486 45.9369 13.199 46.6389 12.119C47.3409 11.039 48.4479 10.499 49.9599 10.499ZM50.0949 12.362C49.4109 12.362 48.8259 12.749 48.3399 13.523C48.1599 13.793 47.9889 14.405 47.8269 15.359C50.3469 15.359 51.6069 14.738 51.6069 13.496C51.6069 12.74 51.1029 12.362 50.0949 12.362ZM65.5507 10.256C65.8027 10.256 65.9917 10.346 66.1177 10.526C66.2437 10.688 66.3067 10.868 66.3067 11.066L66.2797 11.336C65.5237 13.262 64.9657 14.828 64.6057 16.034C64.3717 16.88 64.1917 17.51 64.0657 17.924C63.9577 18.338 63.7687 19.067 63.4987 20.111C63.2287 21.155 63.0487 21.83 62.9587 22.136C62.7067 22.748 62.2657 23.054 61.6357 23.054C61.3297 23.054 61.1137 22.856 60.9877 22.46C60.4117 20.66 59.5657 18.626 58.4497 16.358C57.3337 14.09 56.6947 12.794 56.5327 12.47C56.3887 12.128 56.3167 11.822 56.3167 11.552C56.3167 11.282 56.4337 11.021 56.6677 10.769C56.9197 10.517 57.1987 10.391 57.5047 10.391C57.8107 10.391 58.0717 10.553 58.2877 10.877C58.4857 11.273 59.0437 12.38 59.9617 14.198C60.8977 16.016 61.5547 17.447 61.9327 18.491C61.9507 18.383 62.0137 18.158 62.1217 17.816C63.0397 14.63 63.7867 12.353 64.3627 10.985C64.6687 10.499 65.0647 10.256 65.5507 10.256ZM75.1733 10.391C75.9653 10.391 76.3613 11.066 76.3613 12.416C76.3613 12.56 76.3613 12.713 76.3613 12.875L76.3073 14.765C76.2893 15.359 76.2803 15.944 76.2803 16.52L76.6853 22.622C76.6853 23.072 76.2263 23.297 75.3083 23.297C75.2543 23.297 75.1193 23.297 74.9033 23.297C74.7053 23.297 74.5613 23.216 74.4713 23.054C74.3993 22.892 74.3903 22.694 74.4443 22.46C74.5163 22.226 74.4983 21.965 74.3903 21.677C73.5623 22.559 72.4643 23 71.0963 23C68.5583 23 67.2893 21.038 67.2893 17.114C67.2893 14.936 67.6943 13.289 68.5043 12.173C69.3323 11.057 70.5113 10.499 72.0413 10.499C72.7613 10.499 73.4813 10.625 74.2013 10.877C74.4353 10.553 74.7593 10.391 75.1733 10.391ZM72.3653 12.848C71.3393 12.848 70.5743 13.145 70.0703 13.739C69.5663 14.333 69.3143 15.422 69.3143 17.006C69.3143 19.67 70.0343 21.002 71.4743 21.002C71.8523 21.002 72.2663 20.831 72.7163 20.489C73.1843 20.147 73.5083 19.76 73.6883 19.328C74.0303 18.356 74.2013 17.294 74.2013 16.142C74.2013 14.99 74.0573 14.153 73.7693 13.631C73.4993 13.109 73.0313 12.848 72.3653 12.848ZM93.8862 8.933C93.8862 9.869 93.6342 10.652 93.1302 11.282C92.6442 11.894 91.8342 12.551 90.7002 13.253C90.9162 13.577 91.2672 14.072 91.7532 14.738C92.2392 15.404 92.5362 15.818 92.6442 15.98L93.4812 17.357C94.0212 16.475 94.3362 15.809 94.4262 15.359C94.5702 14.819 94.9392 14.549 95.5332 14.549C95.8392 14.549 96.0912 14.639 96.2892 14.819C96.4872 14.981 96.5862 15.206 96.5862 15.494C96.5862 16.196 95.8842 17.393 94.4802 19.085C95.0382 20.165 95.4522 21.101 95.7222 21.893C95.6862 22.163 95.5602 22.397 95.3442 22.595C95.1282 22.793 94.8852 22.892 94.6152 22.892C94.3452 22.892 94.1022 22.784 93.8862 22.568C93.7422 22.352 93.6252 22.109 93.5352 21.839C93.4452 21.569 93.2922 21.182 93.0762 20.678C92.2482 21.56 91.5552 22.163 90.9972 22.487C90.4392 22.793 89.7912 22.946 89.0532 22.946C88.3332 22.946 87.6042 22.658 86.8662 22.082C86.1282 21.506 85.5702 20.795 85.1922 19.949C84.8142 19.193 84.6252 18.437 84.6252 17.681C84.6252 16.493 84.9312 15.539 85.5432 14.819C86.1552 14.081 87.0552 13.37 88.2432 12.686C87.3972 11.156 86.9742 9.842 86.9742 8.744C86.9742 7.646 87.3072 6.773 87.9732 6.125C88.6572 5.477 89.4762 5.153 90.4302 5.153C91.3842 5.153 92.1942 5.549 92.8602 6.341C93.5442 7.133 93.8862 7.997 93.8862 8.933ZM90.4842 7.205C89.5482 7.205 89.0622 7.961 89.0262 9.473C89.1162 10.247 89.3772 11.021 89.8092 11.795C91.0692 11.039 91.6992 10.292 91.6992 9.554C91.6992 8.798 91.5642 8.213 91.2942 7.799C91.0602 7.403 90.7902 7.205 90.4842 7.205ZM89.0262 20.651C89.9622 20.651 90.9972 20.075 92.1312 18.923C92.0592 18.815 91.9692 18.68 91.8612 18.518C91.7532 18.338 91.5912 18.095 91.3752 17.789C91.1772 17.465 90.8712 17.024 90.4572 16.466C90.0612 15.89 89.7012 15.287 89.3772 14.657L89.1612 14.279C88.5852 14.693 88.1802 15.008 87.9462 15.224C87.1362 15.926 86.7312 16.745 86.7312 17.681C86.7312 18.599 87.0462 19.391 87.6762 20.057C88.0362 20.453 88.4862 20.651 89.0262 20.651ZM105.543 22.136C105.273 21.938 105.138 21.722 105.138 21.488C105.138 21.236 105.237 21.029 105.435 20.867C105.093 18.293 104.922 15.341 104.922 12.011C104.922 11.003 104.967 9.041 105.057 6.125C105.147 5.855 105.327 5.621 105.597 5.423C105.885 5.225 106.155 5.126 106.407 5.126C106.659 5.126 106.812 5.135 106.866 5.153C109.44 5.873 111.681 7.268 113.589 9.338C115.497 11.39 116.496 13.856 116.586 16.736C116.586 19.904 115.272 21.893 112.644 22.703C111.888 22.937 111.087 23.054 110.241 23.054C109.413 23.054 108.684 22.991 108.054 22.865C108.126 23.009 108.162 23.198 108.162 23.432C108.162 23.684 108.009 23.918 107.703 24.134C107.415 24.368 107.064 24.485 106.65 24.485C106.254 24.485 106.002 24.242 105.894 23.756L105.543 22.136ZM107.163 11.795C107.163 14.945 107.343 17.933 107.703 20.759C108.135 20.885 108.864 20.948 109.89 20.948C110.916 20.948 111.897 20.777 112.833 20.435C113.787 20.093 114.291 19.589 114.345 18.923C114.399 18.419 114.426 18.032 114.426 17.762C114.426 15.422 113.796 13.352 112.536 11.552C111.294 9.752 109.548 8.384 107.298 7.448C107.208 9.572 107.163 11.021 107.163 11.795ZM121.679 10.499C122.633 10.499 123.542 10.778 124.406 11.336C125.27 11.894 125.702 12.587 125.702 13.415C125.702 14.225 125.351 15.017 124.649 15.791C123.947 16.547 123.011 17.006 121.841 17.168C121.337 17.24 120.581 17.276 119.573 17.276C119.771 18.806 120.158 19.814 120.734 20.3C120.914 20.498 121.157 20.597 121.463 20.597C122.579 20.597 123.515 20.246 124.271 19.544C125.027 18.824 125.567 18.464 125.891 18.464C126.035 18.464 126.251 18.599 126.539 18.869C126.827 19.139 126.971 19.391 126.971 19.625C126.971 20.093 126.404 20.768 125.27 21.65C124.766 22.064 124.154 22.415 123.434 22.703C122.732 22.973 122.075 23.108 121.463 23.108C119.897 23.108 118.745 22.1 118.007 20.084C117.539 18.842 117.305 17.474 117.305 15.98C117.305 14.486 117.656 13.199 118.358 12.119C119.06 11.039 120.167 10.499 121.679 10.499ZM121.814 12.362C121.13 12.362 120.545 12.749 120.059 13.523C119.879 13.793 119.708 14.405 119.546 15.359C122.066 15.359 123.326 14.738 123.326 13.496C123.326 12.74 122.822 12.362 121.814 12.362ZM137.269 10.256C137.521 10.256 137.71 10.346 137.836 10.526C137.962 10.688 138.025 10.868 138.025 11.066L137.998 11.336C137.242 13.262 136.684 14.828 136.324 16.034C136.09 16.88 135.91 17.51 135.784 17.924C135.676 18.338 135.487 19.067 135.217 20.111C134.947 21.155 134.767 21.83 134.677 22.136C134.425 22.748 133.984 23.054 133.354 23.054C133.048 23.054 132.832 22.856 132.706 22.46C132.13 20.66 131.284 18.626 130.168 16.358C129.052 14.09 128.413 12.794 128.251 12.47C128.107 12.128 128.035 11.822 128.035 11.552C128.035 11.282 128.152 11.021 128.386 10.769C128.638 10.517 128.917 10.391 129.223 10.391C129.529 10.391 129.79 10.553 130.006 10.877C130.204 11.273 130.762 12.38 131.68 14.198C132.616 16.016 133.273 17.447 133.651 18.491C133.669 18.383 133.732 18.158 133.84 17.816C134.758 14.63 135.505 12.353 136.081 10.985C136.387 10.499 136.783 10.256 137.269 10.256ZM144.138 10.418C145.434 10.418 146.496 11.039 147.324 12.281C148.17 13.523 148.593 15.017 148.593 16.763C148.593 18.491 148.161 19.967 147.297 21.191C146.451 22.415 145.317 23.027 143.895 23.027C142.491 23.027 141.357 22.406 140.493 21.164C139.629 19.904 139.197 18.509 139.197 16.979C139.197 15.017 139.593 13.451 140.385 12.281C141.231 11.039 142.482 10.418 144.138 10.418ZM143.814 12.632C143.058 12.632 142.437 13.028 141.951 13.82C141.465 14.612 141.222 15.449 141.222 16.331C141.222 17.699 141.492 18.743 142.032 19.463C142.572 20.183 143.184 20.543 143.868 20.543C145.092 20.543 145.875 20.012 146.217 18.95C146.361 18.446 146.433 17.816 146.433 17.06C146.433 14.108 145.56 12.632 143.814 12.632ZM150.168 5.531C150.222 4.847 150.33 4.406 150.492 4.208C150.672 3.992 150.951 3.884 151.329 3.884C152.103 3.884 152.49 4.199 152.49 4.829C152.49 5.315 152.445 6.584 152.355 8.636C152.283 10.688 152.247 12.524 152.247 14.144C152.247 15.764 152.31 17.069 152.436 18.059C152.652 19.787 152.958 20.651 153.354 20.651C153.75 20.651 154.047 20.372 154.245 19.814C154.335 19.598 154.479 19.409 154.677 19.247C154.875 19.067 155.127 18.977 155.433 18.977C156.063 18.977 156.378 19.508 156.378 20.57C156.378 21.146 156.063 21.722 155.433 22.298C154.821 22.856 154.209 23.135 153.597 23.135C152.985 23.135 152.49 23.036 152.112 22.838C151.752 22.622 151.455 22.307 151.221 21.893C151.005 21.479 150.825 21.083 150.681 20.705C150.555 20.309 150.465 19.832 150.411 19.274C150.303 18.374 150.222 16.934 150.168 14.954C150.132 12.956 150.114 11.057 150.114 9.257C150.114 7.439 150.132 6.197 150.168 5.531ZM166.142 10.256C166.394 10.256 166.583 10.346 166.709 10.526C166.835 10.688 166.898 10.868 166.898 11.066L166.871 11.336C166.115 13.262 165.557 14.828 165.197 16.034C164.963 16.88 164.783 17.51 164.657 17.924C164.549 18.338 164.36 19.067 164.09 20.111C163.82 21.155 163.64 21.83 163.55 22.136C163.298 22.748 162.857 23.054 162.227 23.054C161.921 23.054 161.705 22.856 161.579 22.46C161.003 20.66 160.157 18.626 159.041 16.358C157.925 14.09 157.286 12.794 157.124 12.47C156.98 12.128 156.908 11.822 156.908 11.552C156.908 11.282 157.025 11.021 157.259 10.769C157.511 10.517 157.79 10.391 158.096 10.391C158.402 10.391 158.663 10.553 158.879 10.877C159.077 11.273 159.635 12.38 160.553 14.198C161.489 16.016 162.146 17.447 162.524 18.491C162.542 18.383 162.605 18.158 162.713 17.816C163.631 14.63 164.378 12.353 164.954 10.985C165.26 10.499 165.656 10.256 166.142 10.256ZM172.119 10.499C173.073 10.499 173.982 10.778 174.846 11.336C175.71 11.894 176.142 12.587 176.142 13.415C176.142 14.225 175.791 15.017 175.089 15.791C174.387 16.547 173.451 17.006 172.281 17.168C171.777 17.24 171.021 17.276 170.013 17.276C170.211 18.806 170.598 19.814 171.174 20.3C171.354 20.498 171.597 20.597 171.903 20.597C173.019 20.597 173.955 20.246 174.711 19.544C175.467 18.824 176.007 18.464 176.331 18.464C176.475 18.464 176.691 18.599 176.979 18.869C177.267 19.139 177.411 19.391 177.411 19.625C177.411 20.093 176.844 20.768 175.71 21.65C175.206 22.064 174.594 22.415 173.874 22.703C173.172 22.973 172.515 23.108 171.903 23.108C170.337 23.108 169.185 22.1 168.447 20.084C167.979 18.842 167.745 17.474 167.745 15.98C167.745 14.486 168.096 13.199 168.798 12.119C169.5 11.039 170.607 10.499 172.119 10.499ZM172.254 12.362C171.57 12.362 170.985 12.749 170.499 13.523C170.319 13.793 170.148 14.405 169.986 15.359C172.506 15.359 173.766 14.738 173.766 13.496C173.766 12.74 173.262 12.362 172.254 12.362Z" fill="black"/>
<rect width="35" height="35" fill="#F0F0F5"/>
<path d="M32.0501 8.34216C32.075 8.50574 32.111 8.67011 32.1667 8.81336C31.9541 8.96675 31.7483 9.12254 31.5493 9.25872C30.9457 9.67353 30.3411 10.0868 29.7349 10.4985C29.2667 10.8163 28.8079 11.145 28.32 11.4385C27.9522 11.6592 27.586 11.8784 27.1675 11.9598C27.1495 11.8502 27.1341 11.7406 27.1195 11.6303C27.1727 11.6177 27.2241 11.5911 27.2713 11.5442C28.0285 10.7928 28.94 10.1925 29.8678 9.62895C30.3385 9.34405 30.8162 9.06854 31.2912 8.78911C31.5322 8.64819 31.804 8.50654 32.0501 8.34216Z" fill="#F0F0F5"/>
<path d="M32.4317 4.59938C32.4918 4.76376 32.5355 4.93828 32.5972 5.10577C32.3289 5.1715 32.0647 5.25057 31.7843 5.29206C31.3093 5.36327 30.8256 5.3766 30.3471 5.4165C29.2873 5.50652 28.2282 5.6028 27.1693 5.69905C25.2107 5.87593 23.2539 6.19684 21.2834 6.22736C20.9258 6.23283 20.5682 6.22344 20.2098 6.20623C20.1463 6.07788 20.0563 5.95655 19.9765 5.82193C20.0503 5.82114 20.1231 5.82037 20.1969 5.81881C20.8452 5.80395 21.4952 5.75149 22.14 5.68654C22.82 5.61766 23.5051 5.54018 24.1783 5.42748C24.5855 5.35939 25.0418 5.29286 25.4139 5.12145C25.6626 5.0072 25.5408 4.64479 25.2741 4.6495C24.2768 4.66827 23.271 4.83735 22.2789 4.92892C21.6709 4.98451 21.0621 5.04318 20.4515 5.06981C20.2209 5.08 19.9902 5.08547 19.7596 5.08C19.733 5.0792 19.7064 5.07764 19.6798 5.07608C19.6421 4.93051 19.6121 4.78336 19.5889 4.63855C19.5778 4.57282 19.5701 4.50705 19.5623 4.44131C20.1248 4.45226 20.6856 4.44758 21.249 4.41236C21.9067 4.37166 22.6545 4.33017 23.247 4.04918C23.4305 3.96232 23.3396 3.70323 23.1441 3.70246C22.4701 3.7009 21.7841 3.83005 21.1118 3.88325C20.5828 3.92551 20.0528 3.96229 19.5229 3.99128C19.5143 3.81672 19.5126 3.6422 19.5194 3.46844C19.5289 3.22503 19.5786 2.97927 19.606 2.73583C19.9413 2.67868 20.2749 2.60903 20.6187 2.56286C22.507 2.30692 24.4337 2.34138 26.3331 2.16371C28.2505 1.98368 30.1679 1.80368 32.0852 1.62366C32.1092 1.85924 32.1264 2.09014 32.1178 2.32887C31.0022 2.30619 29.8917 2.48933 28.7924 2.64664C28.1648 2.73586 27.5371 2.82667 26.9051 2.88222C26.3126 2.93466 25.7046 2.91433 25.1189 3.0059C24.8677 3.04504 24.926 3.35342 25.1189 3.41915C26.1908 3.78468 27.5911 3.50993 28.6835 3.34403C29.9029 3.15853 31.1171 2.94487 32.3562 2.90494C32.3631 3.18513 32.3888 3.48101 32.4763 3.75261C31.8649 3.83008 31.2595 3.93655 30.6455 4.00932C30.3428 4.04454 30.3351 4.41554 30.6455 4.44449C31.2174 4.49849 31.7997 4.47972 32.3768 4.44137C32.3923 4.49139 32.4112 4.54383 32.4317 4.59938Z" fill="#F0F0F5"/>
<path d="M31.9798 7.62135C31.9832 7.65345 31.9858 7.691 31.9892 7.73169C31.6137 7.89451 31.2629 8.13556 30.9182 8.33201C30.4183 8.61691 29.9167 8.89789 29.4227 9.19141C28.5798 9.69389 27.7532 10.2308 27.0389 10.8812C27.0166 10.6339 26.9951 10.3866 26.9703 10.1392C27.5885 9.70642 28.3037 9.3996 28.9743 9.0427C29.5265 8.74841 30.5144 8.29443 30.6353 7.65186C30.6576 7.53525 30.5555 7.40689 30.4123 7.44835C30.0667 7.54775 29.7743 7.81935 29.4785 8.00406C29.1295 8.22166 28.7667 8.41811 28.4006 8.61143C27.8809 8.88771 27.3647 9.16949 26.8957 9.51074C26.8656 9.29629 26.8288 9.08339 26.7825 8.87129C26.7833 8.86346 26.7842 8.85484 26.7842 8.84625C27.6305 8.48623 28.4229 7.9759 29.2178 7.53681C30.0564 7.07344 30.8942 6.60307 31.7483 6.16319C31.8092 6.15771 31.87 6.15065 31.9301 6.14282C31.9052 6.63514 31.9266 7.12823 31.9798 7.62135Z" fill="#F0F0F5"/>
<path d="M31.8092 16.8619C31.8221 17.0059 31.8452 17.1484 31.8855 17.2807C30.6284 17.935 29.4099 18.6793 28.0705 19.1677C27.4831 19.3822 26.8871 19.5779 26.2911 19.7728C26.2449 19.7884 26.1951 19.8033 26.1445 19.8189C26.196 19.3885 26.1874 18.9681 26.1497 18.5384C26.6427 18.3475 27.1204 18.1299 27.6023 17.9115L27.7052 18.1118C27.484 18.2105 27.5002 18.5235 27.7052 18.6269C28.0302 18.7897 28.4649 18.5932 28.771 18.4758C29.2821 18.2801 29.7743 18.0453 30.2537 17.7917C30.7313 17.5381 31.2081 17.2728 31.6505 16.9707C31.7028 16.9347 31.756 16.8987 31.8092 16.8619Z" fill="#F0F0F5"/>
<path d="M32.8964 11.1356C32.8072 11.3383 32.7455 11.5583 32.6974 11.7782C32.3656 11.8103 32.0243 11.9183 31.7285 11.9989C31.3263 12.1077 30.7732 12.233 30.4971 12.5445C30.3976 12.6572 30.4448 12.8904 30.6455 12.8709C31.0725 12.8302 31.4935 12.6932 31.9171 12.6204C32.1135 12.5875 32.3424 12.5687 32.5654 12.5335C32.5645 12.5429 32.5628 12.5531 32.5611 12.5625C32.5345 12.7276 32.5088 12.8943 32.4848 13.0618C32.3296 13.0822 32.1744 13.1057 32.02 13.1323C31.7396 13.1824 31.4266 13.209 31.1814 13.3498C31.0159 13.4453 31.0519 13.6661 31.2345 13.7208C31.5244 13.8069 31.8657 13.7561 32.1632 13.7201C32.249 13.7091 32.3322 13.6958 32.4145 13.6794C32.3939 13.9275 32.3854 14.1756 32.3922 14.4229C32.1075 14.4675 31.8245 14.5247 31.5484 14.5748C30.8478 14.7015 30.1515 14.851 29.4561 15.0005C28.2213 15.2651 26.9779 15.4616 25.7346 15.6791C25.6711 15.6791 25.6085 15.6893 25.5502 15.7112C25.4842 15.723 25.4173 15.7347 25.3513 15.7465C24.6738 15.8678 23.9981 15.9977 23.3207 16.1143C23 16.1699 22.6793 16.2223 22.3577 16.2693C22.2008 16.2928 21.9976 16.364 21.8466 16.3601C21.7677 16.3585 21.6889 16.317 21.6108 16.3068C21.6005 16.2998 21.5885 16.2927 21.5774 16.2857C21.5276 16.148 21.4719 16.0118 21.4222 15.8732C22.6124 15.8943 23.8463 15.5398 24.9902 15.3465C25.6934 15.2267 26.4068 15.1649 27.1151 15.0757C27.868 14.9794 28.7367 14.8784 29.3832 14.4839C29.631 14.3337 29.4673 14.0253 29.1894 14.0644C28.4391 14.1701 27.7026 14.3329 26.9471 14.4221C26.2654 14.5027 25.5811 14.5615 24.9054 14.6788C23.6971 14.8878 22.5095 15.1719 21.2833 15.2627C21.261 15.0631 21.2558 14.8612 21.267 14.6616C22.0285 14.5262 22.7753 14.4088 23.5574 14.3446C24.4114 14.2742 25.3684 14.2914 26.1693 13.9838C26.406 13.893 26.3854 13.5823 26.1076 13.5658C25.1789 13.5095 24.2117 13.6347 23.2864 13.7106C22.6802 13.7607 21.9942 13.8006 21.3733 13.9556C21.4265 13.7513 21.4994 13.5502 21.5954 13.3623C21.7472 13.0633 21.9564 12.8489 22.1923 12.6242C23.6329 12.7158 27.9238 12.6383 28.3885 12.3785C28.7247 12.1899 29.0454 11.9785 29.3601 11.7609C30.3514 11.6498 31.3161 11.3375 32.3056 11.2092C32.502 11.1833 32.6992 11.1591 32.8964 11.1356Z" fill="#F0F0F5"/>
<path d="M31.7843 15.3785C31.7655 15.6306 31.7706 15.8873 31.78 16.1307C31.1703 16.4978 30.5744 16.8774 29.933 17.2046C29.5051 17.423 29.0712 17.6374 28.6236 17.819C28.3277 17.9388 27.9916 17.9841 27.7052 18.1117L27.6023 17.9114C27.9273 17.765 28.254 17.6202 28.5833 17.4809C28.8851 17.3525 29.2359 17.2602 29.3919 16.9745C29.452 16.8634 29.4057 16.7146 29.2607 16.6818C28.9589 16.6129 28.7265 16.7342 28.4547 16.8508C28.1005 17.0027 27.7472 17.1631 27.4034 17.3345C26.9635 17.5545 26.5339 17.7893 26.094 18.0076C26.0348 17.4848 25.9911 16.9596 26.1086 16.4462C26.9583 16.3068 27.8073 16.1621 28.6493 15.9961C29.4554 15.8372 30.2554 15.6588 31.0615 15.4991C31.299 15.4521 31.5408 15.4138 31.7843 15.3785Z" fill="#F0F0F5"/>
<path d="M31.9394 19.6075C32.2027 20.2063 32.5534 20.7878 32.6735 21.4234C31.8931 22.1795 30.7715 22.5567 29.8291 23.1132C29.2452 23.4576 28.6715 23.8153 28.0644 24.1268C27.6451 24.342 27.2163 24.5072 26.7807 24.6676C26.8441 24.2646 26.9102 23.7464 26.9102 23.7464C26.9102 23.7464 28.1296 23.1523 28.5343 22.851C28.9759 22.5215 29.4381 22.2037 29.8583 21.8515C30.0143 21.7208 29.8454 21.522 29.667 21.5517C29.1285 21.641 28.6809 21.9533 28.2684 22.2648C27.8337 22.5927 26.9084 23.3183 26.8981 23.3504C26.911 23.0232 26.917 22.6961 26.9264 22.372C26.9402 21.8891 26.9445 21.4054 26.959 20.9225C26.9659 20.7151 26.9925 20.4912 26.9856 20.2744C27.4907 20.1335 27.9923 19.9848 28.4846 19.8103C29.71 19.3743 30.8367 18.7403 31.9798 18.1439C31.9789 18.3349 31.9497 18.5384 31.9249 18.7137C31.7662 18.8311 30.3891 19.7156 29.9766 19.8893C29.5307 20.0772 29.0394 20.2611 28.7401 20.6329C28.6406 20.7558 28.8044 20.8747 28.9305 20.8591C29.4475 20.7941 29.9912 20.5359 30.4637 20.3386C30.8453 20.1781 31.8271 19.6232 31.9394 19.6075Z" fill="#F0F0F5"/>
<path d="M32.5243 25.5941C32.5303 25.7186 32.538 25.8423 32.5474 25.9651C32.363 26.0583 32.1804 26.1522 31.996 26.2446C31.1265 26.6821 30.2313 27.0758 29.3575 27.5055C27.7668 28.2874 26.0193 28.9456 24.6619 30.0524C24.6773 29.7949 24.6781 29.5358 24.6928 29.283C25.2072 29.0576 25.69 28.7453 26.1874 28.4956C26.7807 28.1982 27.4325 27.9289 27.9787 27.5619C28.1742 27.4296 28.0644 27.1423 27.8089 27.194C27.1117 27.3357 26.4146 27.6777 25.7869 27.9798C25.4662 28.1348 25.0709 28.3054 24.7365 28.5246C24.7467 28.3297 24.7536 28.134 24.7588 27.9391C25.4328 27.6699 26.0793 27.3372 26.7516 27.0641C27.718 26.6719 28.6707 26.2501 29.6259 25.8345C30.5709 25.4228 31.551 25.0236 32.4977 24.5782C32.4977 24.6643 32.5003 24.7473 32.5011 24.8209C32.502 24.8772 32.5037 24.9352 32.5045 24.9915C32.1821 25.1129 31.8734 25.2788 31.5639 25.4158C31.1368 25.6036 30.7038 25.7883 30.287 25.9942C30.1541 26.0607 30.2073 26.2799 30.3676 26.2658C30.8538 26.2243 31.3349 26.0592 31.7825 25.8885C32.0278 25.7945 32.2816 25.703 32.5243 25.5941Z" fill="#F0F0F5"/>
<path d="M34.9673 10.5196C35.0419 10.6534 34.9904 10.8757 34.7967 10.9024C34.4314 10.954 34.0652 10.9986 33.6991 11.0417C33.4127 12.1148 33.2275 13.2403 33.2883 14.3494C33.3646 14.3509 33.441 14.3548 33.5164 14.3611C33.9357 14.3979 34.0438 14.9215 33.6176 15.0436C33.2626 15.1453 32.8913 15.2126 32.5166 15.2706C32.6083 15.7989 32.6117 16.3444 32.7155 16.8735C33.1863 16.7264 33.567 17.365 33.0894 17.5897C32.9162 17.6711 32.7438 17.7548 32.5732 17.8402C32.6666 18.1423 32.6641 18.4812 32.6418 18.7802C32.6349 18.8733 32.6041 18.9586 32.5586 19.0385C32.5715 19.0588 32.5835 19.0807 32.5929 19.1034C32.9548 19.9127 33.5036 20.6672 33.597 21.5556C33.6142 21.7254 33.5362 21.8389 33.4187 21.8984C33.411 21.9086 33.4033 21.9195 33.3939 21.9282C33.0483 22.2819 32.635 22.5574 32.1968 22.8009C32.3031 22.8079 34.6715 23.3988 34.2033 23.6798C33.8792 23.8747 33.5439 24.0579 33.2026 24.2324C33.2403 24.6793 33.3124 25.1231 33.3621 25.5677C33.6151 25.4456 33.8929 25.3219 34.1647 25.3337C34.3234 25.34 34.5892 25.8479 34.4468 25.9551C34.1724 26.1633 33.7934 26.2611 33.4762 26.4091C33.1288 26.5703 32.7884 26.7425 32.4454 26.9108C32.5664 27.3468 32.7027 28.956 32.7027 28.956C32.7027 28.956 33.0328 28.747 33.1949 28.6366C33.4925 28.4316 33.8543 29.2041 33.7454 29.2878C32.2362 30.4368 30.3411 31.052 28.6793 31.9826C27.8432 32.4499 27.0517 32.9813 26.2389 33.4815C25.6506 33.8431 24.0274 34.8668 23.7916 34.9404C23.5026 35.0296 23.199 35.0015 22.9032 34.9663C22.3776 34.9044 21.8536 34.8254 21.3297 34.7542C19.9928 34.5718 18.6611 34.3683 17.3277 34.1679C14.6798 33.7711 12.0395 33.332 9.41383 32.824C6.79673 32.3176 4.19507 31.7416 1.62771 31.0559C1.25384 30.9557 0.876525 30.8602 0.506946 30.7483C0.335438 30.6967 0.191399 30.6552 0.0764673 30.5229C-0.128471 30.2881 0.134787 27.9768 0.212802 27.1402C0.215382 27.1081 0.224794 27.0791 0.237657 27.0517C0.265963 26.9625 0.336274 26.8873 0.446047 26.8654C0.914243 26.773 2.86679 26.3817 3.38041 26.3136C3.19861 26.0217 3.088 25.6961 3.02881 25.3572C2.99967 25.1912 3.29465 23.7816 3.29465 23.7816C3.29465 23.7816 2.77071 21.5815 2.72784 21.147C2.6798 20.6547 2.65495 20.1554 2.70982 19.6631C2.73213 19.4658 2.775 19.2733 2.81959 19.0807C2.78013 19.0674 2.7407 19.0557 2.70211 19.0416C1.89177 18.7418 1.95009 18.0812 1.97236 17.4027C1.99638 16.6732 1.62593 15.6745 2.14558 15.0397C2.58289 14.5059 3.33237 14.621 3.96005 14.473C3.45155 13.9924 3.27663 13.1761 3.27147 12.5492C3.26718 11.9872 3.41038 11.3822 3.77226 10.9243C3.39581 10.8453 2.05983 10.7357 1.90118 8.55119C1.85231 7.87728 2.10441 6.17886 2.43028 5.97223C2.88819 5.68107 3.83229 5.41888 4.21302 5.33746C4.60746 5.25292 5.0105 5.17544 5.41609 5.11909C5.38179 5.08934 5.35777 5.05336 5.34236 5.01498C4.95905 4.70113 4.87329 3.91999 4.81243 3.55214C4.70095 2.872 4.56374 2.02121 4.90589 1.37705C4.95392 1.28704 5.07311 1.2354 5.17772 1.2346C5.36467 1.23305 9.19683 0.880818 10.9393 0.639764C11.8825 0.509055 12.8086 0.294601 13.7485 0.149032C14.1789 0.0825007 14.6137 0.0245915 15.0493 0.00578698C15.3923 -0.00986756 18.9458 0.019087 20.3855 0.00734606C21.8218 -0.00439484 23.2581 -0.00595385 24.6944 0.032387C26.1162 0.0699643 27.5388 0.146646 28.9528 0.295364C30.3625 0.442523 31.8314 0.494164 33.2112 0.807255C33.6828 0.914482 33.5267 1.4882 33.104 1.52733C32.9136 1.54534 32.7232 1.56335 32.5329 1.58133C32.6263 1.85213 32.5389 2.45168 32.5389 2.45168L32.9299 2.39533C32.9299 2.39533 33.2411 4.37398 33.2463 4.39431C33.3123 4.65573 33.3758 4.94298 33.3706 5.2169C33.4049 5.33352 33.3818 5.4752 33.3046 5.56442C33.1057 5.79453 32.8176 5.93933 32.4891 6.03246C32.544 6.50913 32.5954 6.98656 32.664 7.46167C32.7086 7.7677 32.7584 8.07529 32.8398 8.37508C33.0345 8.26785 33.2351 8.17784 33.4409 8.11993C33.669 8.05575 33.9006 8.31246 33.7608 8.49952C33.4024 8.9793 32.8072 9.35578 32.2644 9.71348C32.8021 9.78001 34.584 9.96395 34.7795 10.1823C34.861 10.2739 34.909 10.414 34.9673 10.5196ZM33.471 10.5228C33.5704 10.5126 33.6262 10.4234 33.4855 10.3952C32.9239 10.2801 32.3656 10.1392 31.8014 10.0273C31.3581 10.3435 30.9139 10.6574 30.4697 10.9728C31.0528 10.8538 31.6342 10.7177 32.2233 10.6542C32.6058 10.6128 32.9882 10.5736 33.3715 10.5337C33.4041 10.5243 33.4375 10.5204 33.471 10.5228ZM32.6975 11.7782C32.7455 11.5583 32.8073 11.3383 32.8964 11.1356C32.6992 11.1591 32.502 11.1833 32.3056 11.2092C31.3161 11.3375 30.3514 11.6498 29.3601 11.7609C29.0454 11.9785 28.7247 12.1899 28.3885 12.3785C27.9238 12.6383 23.6328 12.7158 22.1922 12.6242C21.9564 12.8489 21.7472 13.0633 21.5954 13.3623C21.4994 13.5502 21.4265 13.7513 21.3733 13.9556C21.9942 13.8006 22.6802 13.7607 23.2864 13.7106C24.2116 13.6347 25.1789 13.5095 26.1076 13.5658C26.3854 13.5823 26.406 13.893 26.1693 13.9838C25.3684 14.2914 24.4114 14.2742 23.5574 14.3446C22.7753 14.4088 22.0284 14.5262 21.267 14.6616C21.2558 14.8612 21.261 15.0631 21.2832 15.2627C22.5095 15.1719 23.6971 14.8878 24.9053 14.6788C25.5811 14.5614 26.2654 14.5027 26.9471 14.4221C27.7025 14.3329 28.4391 14.1701 29.1894 14.0644C29.4673 14.0253 29.631 14.3337 29.3832 14.4839C28.7367 14.8784 27.868 14.9794 27.1151 15.0757C26.4068 15.1649 25.6934 15.2267 24.9902 15.3465C23.8463 15.5398 22.6124 15.8943 21.4222 15.8732C21.4719 16.0118 21.5276 16.1479 21.5774 16.2857C21.5885 16.2927 21.6005 16.2998 21.6108 16.3068C21.6888 16.317 21.7677 16.3585 21.8466 16.3601C21.9975 16.364 22.2007 16.2927 22.3577 16.2693C22.6793 16.2223 23 16.1699 23.3207 16.1143C23.9981 15.9977 24.6738 15.8677 25.3512 15.7465C25.4173 15.7347 25.4842 15.723 25.5502 15.7112C25.6085 15.6893 25.6711 15.6791 25.7345 15.6791C26.9779 15.4615 28.2213 15.2651 29.4561 15.0005C30.1515 14.8511 30.8478 14.7015 31.5484 14.5748C31.8245 14.5247 32.1075 14.4675 32.3922 14.4229C32.3853 14.1756 32.3939 13.9275 32.4145 13.6794C32.3321 13.6958 32.249 13.7091 32.1632 13.7201C31.8657 13.7561 31.5244 13.8069 31.2345 13.7208C31.0519 13.6661 31.0159 13.4453 31.1814 13.3498C31.4266 13.209 31.7396 13.1824 32.02 13.1323C32.1744 13.1057 32.3296 13.0822 32.4848 13.0618C32.5088 12.8943 32.5345 12.7276 32.5611 12.5625C32.5628 12.5531 32.5645 12.5429 32.5654 12.5335C32.3424 12.5687 32.1135 12.5875 31.9171 12.6204C31.4935 12.6932 31.0725 12.8301 30.6454 12.8709C30.4448 12.8904 30.3976 12.6572 30.4971 12.5445C30.7732 12.233 31.3263 12.1077 31.7284 11.9989C32.0244 11.9183 32.3656 11.8103 32.6975 11.7782ZM29.2306 25.1176C29.9844 24.7787 32.6289 23.6681 32.6212 23.5655C32.6006 23.2837 31.7568 23.4152 31.046 23.3824C30.7587 23.5233 30.4749 23.6665 30.2039 23.8238C29.5513 24.2026 28.9039 24.5948 28.2102 24.9086C27.6134 25.1787 26.9454 25.4589 26.268 25.4753C24.7091 25.6866 23.0541 25.4221 21.4874 25.3548C18.3318 25.2194 15.1814 24.994 12.0352 24.7317C11.0285 24.6472 8.9379 24.4578 7.92774 24.3913C7.37466 24.3552 7.02224 24.4562 7.51358 24.5423C10.3253 25.0347 14.2312 25.5849 17.049 26.0443C18.5633 26.2909 20.0777 26.5382 21.5852 26.8176C22.4967 26.9867 23.452 27.1307 24.3334 27.4179C24.986 27.0149 25.7449 26.7315 26.4369 26.3934C27.3544 25.9457 28.2968 25.5371 29.2306 25.1176ZM32.5474 25.9652C32.538 25.8424 32.5303 25.7187 32.5243 25.5942C32.2816 25.703 32.0278 25.7946 31.7825 25.8885C31.3349 26.0592 30.8539 26.2243 30.3677 26.2658C30.2073 26.2799 30.1542 26.0607 30.2871 25.9942C30.7038 25.7884 31.1368 25.6036 31.5639 25.4158C31.8735 25.2788 32.1822 25.1129 32.5046 24.9915C32.5037 24.9352 32.502 24.8773 32.5012 24.8209C32.5003 24.7473 32.4978 24.6644 32.4978 24.5783C31.5511 25.0236 30.5709 25.4228 29.626 25.8345C28.6707 26.2501 27.718 26.672 26.7516 27.0641C26.0794 27.3372 25.4328 27.6699 24.7588 27.9391C24.7536 28.134 24.7468 28.3297 24.7365 28.5246C25.0709 28.3054 25.4662 28.1348 25.7869 27.9798C26.4146 27.6777 27.1118 27.3357 27.8089 27.194C28.0644 27.1424 28.1742 27.4296 27.9787 27.5619C27.4325 27.929 26.7808 28.1982 26.1874 28.4956C25.6901 28.7453 25.2073 29.0576 24.6928 29.283C24.6782 29.5358 24.6773 29.7949 24.6619 30.0524C26.0193 28.9456 27.7669 28.2874 29.3576 27.5055C30.2313 27.0758 31.1266 26.6821 31.9961 26.2446C32.1804 26.1523 32.3631 26.0584 32.5474 25.9652ZM32.5972 5.10576C32.5354 4.93827 32.4917 4.76372 32.4317 4.59937C32.4111 4.54379 32.3922 4.49135 32.3768 4.44127C31.7997 4.47961 31.2174 4.49842 30.6455 4.44439C30.3351 4.41543 30.3428 4.04443 30.6455 4.00921C31.2595 3.93641 31.8649 3.82998 32.4763 3.7525C32.3888 3.4809 32.3631 3.18506 32.3562 2.90484C31.1172 2.94477 29.9029 3.15843 28.6835 3.34393C27.5911 3.50986 26.1908 3.78458 25.1189 3.41905C24.926 3.35331 24.8677 3.04493 25.1189 3.00579C25.7046 2.91422 26.3126 2.93459 26.9051 2.88212C27.5371 2.82653 28.1648 2.73575 28.7924 2.64654C29.8918 2.48923 31.0022 2.30605 32.1178 2.32877C32.1264 2.09004 32.1092 1.85916 32.0852 1.62355C30.1679 1.80358 28.2505 1.98357 26.3331 2.1636C24.4337 2.34127 22.507 2.30684 20.6187 2.56276C20.2749 2.60893 19.9413 2.67861 19.606 2.73572C19.5786 2.97913 19.5288 3.22489 19.5194 3.46833C19.5126 3.64209 19.5143 3.81662 19.5228 3.99117C20.0528 3.96222 20.5827 3.92543 21.1118 3.88315C21.7841 3.82992 22.4701 3.70077 23.1441 3.70236C23.3396 3.70315 23.4305 3.96222 23.247 4.04908C22.6544 4.33007 21.9067 4.37156 21.249 4.41225C20.6857 4.44747 20.1248 4.45218 19.5623 4.44121C19.57 4.50694 19.5778 4.57271 19.5889 4.63845C19.6121 4.78325 19.6421 4.93038 19.6798 5.07598C19.7064 5.07754 19.7329 5.0791 19.7595 5.07989C19.9902 5.08537 20.2209 5.07989 20.4515 5.06971C21.0621 5.04311 21.6709 4.98441 22.2789 4.92882C23.271 4.83725 24.2768 4.6682 25.2741 4.64939C25.5408 4.64468 25.6626 5.00709 25.4139 5.12135C25.0417 5.29276 24.5855 5.35929 24.1782 5.42738C23.5051 5.54008 22.82 5.61759 22.14 5.68644C21.4952 5.75142 20.8452 5.80385 20.1969 5.81871C20.1232 5.82027 20.0503 5.82107 19.9765 5.82183C20.0563 5.95645 20.1463 6.07777 20.2098 6.20613C20.5682 6.22334 20.9258 6.23273 21.2833 6.22726C23.2539 6.19674 25.2107 5.87582 27.1693 5.69895C28.2283 5.60266 29.2873 5.50642 30.3471 5.4164C30.8256 5.37647 31.3093 5.36317 31.7843 5.29196C32.0647 5.25057 32.3288 5.1715 32.5972 5.10576ZM32.6735 21.4233C32.5534 20.7878 32.2027 20.2062 31.9394 19.6075C31.8271 19.6231 30.8453 20.1781 30.4637 20.3385C29.9912 20.5357 29.4475 20.794 28.9305 20.859C28.8044 20.8746 28.6406 20.7557 28.7401 20.6328C29.0394 20.261 29.5307 20.0771 29.9766 19.8892C30.3891 19.7155 31.7662 18.831 31.9249 18.7136C31.9497 18.5383 31.9789 18.3348 31.9797 18.1438C30.8367 18.7402 29.7099 19.3742 28.4846 19.8101C27.9924 19.9847 27.4907 20.1334 26.9857 20.2743C26.9925 20.4911 26.9659 20.7149 26.9591 20.9223C26.9445 21.4053 26.9402 21.889 26.9265 22.3719C26.917 22.6959 26.911 23.0231 26.8982 23.3503C26.9084 23.3182 27.8337 22.5926 28.2684 22.2647C28.6809 21.9532 29.1285 21.6409 29.667 21.5516C29.8454 21.5219 30.0143 21.7207 29.8583 21.8514C29.4381 22.2036 28.9759 22.5214 28.5343 22.8509C28.1295 23.1522 26.9102 23.7463 26.9102 23.7463C26.9102 23.7463 26.8442 24.2644 26.7807 24.6675C27.2163 24.507 27.6451 24.3419 28.0644 24.1267C28.6715 23.8152 29.2452 23.4575 29.8291 23.1131C30.7716 22.5566 31.8932 22.1794 32.6735 21.4233ZM32.1667 8.81337C32.111 8.67013 32.0749 8.50579 32.0501 8.34218C31.804 8.50655 31.5322 8.6482 31.2912 8.7891C30.8161 9.06852 30.3385 9.34404 29.8678 9.62894C28.9399 10.1925 28.0284 10.7928 27.2713 11.5442C27.2241 11.5911 27.1726 11.6177 27.1195 11.6303C27.134 11.7406 27.1495 11.8502 27.1675 11.9598C27.586 11.8784 27.9521 11.6592 28.32 11.4385C28.8079 11.145 29.2667 10.8163 29.7349 10.4985C30.3411 10.0868 30.9457 9.67354 31.5493 9.2587C31.7482 9.12252 31.9541 8.96677 32.1667 8.81337ZM31.9995 29.3676C31.9858 29.0529 32.0004 28.7344 31.9781 28.419C31.3615 28.7195 30.7193 28.9825 30.1096 29.2956C29.3653 29.6768 28.6535 30.1879 27.8706 30.497C27.6665 30.5776 27.5045 30.382 27.64 30.2238C28.1673 29.6063 29.0557 29.1743 29.7837 28.786C30.45 28.4299 31.16 28.0488 31.9009 27.8155C31.8683 27.6183 31.8272 27.4226 31.7766 27.2292C31.1094 27.5392 30.4346 27.8358 29.7717 28.1528C28.109 28.9488 26.376 29.6235 24.7982 30.5588L24.631 31.1067C24.5633 31.2546 24.4749 31.7329 24.4775 31.8182C24.7048 31.6397 24.9277 31.4573 25.1609 31.2867C25.5168 31.0268 25.9284 30.7239 26.3914 30.6653C26.5758 30.6426 26.7422 30.8296 26.5861 30.9705C26.2259 31.2961 25.7938 31.5724 25.4062 31.873C25.1249 32.0913 24.8419 32.3034 24.5367 32.4882C24.5444 32.5789 24.5521 32.6697 24.5564 32.7613C24.5693 32.9969 24.5916 33.2904 24.5787 33.5878C24.9989 33.3389 25.4294 33.1002 25.8281 32.8396C26.6067 32.3277 27.3768 31.8033 28.188 31.3344C29.4261 30.6191 30.7527 30.0587 31.9995 29.3676ZM31.9892 7.73168C31.9858 7.69099 31.9832 7.65341 31.9797 7.62134C31.9266 7.12825 31.9051 6.63513 31.93 6.14284C31.87 6.15067 31.8091 6.1577 31.7482 6.16321C30.8942 6.60309 30.0563 7.07346 29.2177 7.53683C28.4228 7.97592 27.6305 8.48622 26.7841 8.84627C26.7841 8.8549 26.7833 8.86349 26.7824 8.87131C26.8287 9.08341 26.8656 9.29631 26.8956 9.51076C27.3647 9.16951 27.8809 8.88773 28.4005 8.61145C28.7667 8.41813 29.1294 8.22168 29.4784 8.00408C29.7743 7.81937 30.0667 7.54777 30.4122 7.44837C30.5554 7.40688 30.6575 7.53524 30.6352 7.65188C30.5143 8.29448 29.5264 8.74843 28.9742 9.04272C28.3036 9.39962 27.5885 9.70644 26.9702 10.1393C26.9951 10.3866 27.0165 10.6339 27.0388 10.8813C27.7531 10.2308 28.5797 9.69394 29.4227 9.19144C29.9166 8.89791 30.4182 8.61693 30.9181 8.33203C31.2629 8.13555 31.6136 7.8945 31.9892 7.73168ZM31.8855 17.2805C31.8452 17.1482 31.822 17.0058 31.8091 16.8618C31.756 16.8986 31.7028 16.9346 31.6505 16.9706C31.208 17.2727 30.7313 17.538 30.2536 17.7916C29.7743 18.0452 29.282 18.28 28.771 18.4757C28.4649 18.5931 28.0301 18.7895 27.7051 18.6267C27.5002 18.5234 27.4839 18.2103 27.7051 18.1117C27.9916 17.9841 28.3277 17.9388 28.6235 17.819C29.0711 17.6374 29.505 17.423 29.9329 17.2046C30.5743 16.8774 31.1703 16.4978 31.78 16.1307C31.7705 15.8873 31.7654 15.6306 31.7843 15.3785C31.5407 15.4138 31.2989 15.4521 31.0614 15.4991C30.2553 15.6587 29.4553 15.8372 28.6492 15.9961C27.8071 16.162 26.9582 16.3068 26.1084 16.4461C25.991 16.9596 26.0347 17.4847 26.0939 18.0076C26.5338 17.7892 26.9634 17.5544 27.4033 17.3345C27.7471 17.1631 28.1004 17.0026 28.4546 16.8508C28.7264 16.7342 28.9588 16.6128 29.2606 16.6817C29.4055 16.7146 29.4518 16.8633 29.3918 16.9744C29.2358 17.2601 28.885 17.3525 28.5832 17.4808C28.2539 17.6202 27.9272 17.7649 27.6022 17.9113C27.1203 18.1297 26.6427 18.3473 26.1496 18.5382C26.1873 18.9679 26.1959 19.3882 26.1445 19.8187C26.195 19.8031 26.2448 19.7882 26.2911 19.7726C26.887 19.5777 27.483 19.382 28.0704 19.1675C29.4098 18.6792 30.6284 17.9348 31.8855 17.2805ZM28.8473 6.95837C29.246 6.72435 29.6508 6.49736 30.0538 6.2704C28.9245 6.36509 27.7952 6.46373 26.6667 6.56625C24.661 6.74783 22.6519 7.09611 20.629 7.03429C19.63 7.00378 18.6311 6.8942 17.6338 6.82687C15.4532 6.6813 13.2545 6.42536 11.0988 6.0927C10.068 5.9338 9.04335 5.78196 8.00147 5.70136C7.4235 5.65596 6.84728 5.60588 6.29674 5.46343C5.74966 5.61291 5.1674 5.6818 4.6169 5.80624C4.22676 5.8939 3.53902 6.00192 3.10857 6.26254C4.58863 6.58187 6.10812 6.73215 7.62332 6.83861C9.11366 6.94348 10.6057 7.01316 12.0926 7.14779C13.721 7.29571 15.3468 7.47103 16.9726 7.64167C18.5976 7.81231 20.2226 7.99937 21.8527 8.12693C22.6493 8.18875 23.4493 8.2177 24.2485 8.25608C24.9731 8.2913 25.8383 8.25452 26.5218 8.50105C27.1726 7.88116 28.0696 7.41391 28.8473 6.95837ZM21.4737 1.76212C23.373 1.59227 30.5426 1.24946 30.5426 1.24946C30.5349 0.758732 14.7783 0.535655 14.7783 0.535655C14.7783 0.535655 10.8947 1.0976 9.77735 1.23066C9.08706 1.31285 9.01846 1.4686 9.09822 1.47486C9.54156 1.51088 11.1794 1.5406 11.6227 1.57897C13.3583 1.72845 15.0956 1.85057 16.832 1.98831C17.5395 2.04466 18.2726 2.16128 18.9826 2.12214C19.3839 2.09945 19.7775 1.97734 20.1745 1.91707C20.605 1.85054 21.0389 1.80122 21.4737 1.76212ZM26.2234 20.6312C26.2311 20.5756 26.2388 20.5193 26.2474 20.4622C26.1539 20.4809 25.7689 20.7705 25.5786 20.8316C25.1772 20.9584 24.6087 20.8754 24.1997 20.8527C22.7436 20.7721 21.285 20.6148 19.8307 20.5044C19.0238 20.4434 18.2169 20.3824 17.41 20.3213C17.4829 20.4129 17.5515 20.5052 17.6158 20.5953C17.9622 21.079 18.2324 21.6276 18.403 22.1841C18.6148 22.8729 18.6731 23.7855 18.2684 24.4359C19.5581 24.5158 20.8477 24.5799 22.1374 24.6488C22.8037 24.6841 23.4657 24.7553 24.1294 24.81C24.6996 24.8578 25.269 24.8664 25.8392 24.8844C25.8607 24.7287 25.9112 24.569 25.9301 24.4344C26.0476 23.5656 26.0664 22.6874 26.1213 21.8139C26.1462 21.4194 26.1693 21.0233 26.2234 20.6312ZM26.1925 11.9535C26.063 11.0127 26.2748 10.0359 26.2225 9.09041C25.8658 9.09512 25.5142 9.04972 25.1532 9.02544C24.9946 9.01449 24.8351 9.00508 24.6764 8.99569C24.6052 9.30878 24.5392 9.61793 24.5444 9.94432C24.5512 10.3427 24.6344 10.7348 24.7467 11.1183C24.7853 11.2491 24.9474 11.6122 25.0212 11.9449C25.4113 11.9488 25.8023 11.9512 26.1925 11.9535ZM25.1987 20.0051C25.2596 19.7679 25.2861 19.1433 25.2835 19.04C25.2578 18.2205 25.0666 17.4081 25.1618 16.5996C24.8196 16.6552 24.4766 16.7115 24.1353 16.7686C24.1834 17.8151 24.1165 18.9124 24.456 19.9119C24.4526 19.9127 24.45 19.9135 24.4466 19.9143C24.456 19.9386 24.462 19.9652 24.4672 19.9926C24.4826 19.9934 24.498 19.9941 24.5135 19.9949C24.7347 19.9996 24.98 19.9738 25.1987 20.0051ZM24.0865 29.2361C24.1002 28.7986 24.1139 28.3611 24.1165 27.9228C23.1544 27.7169 22.1871 27.5361 21.2155 27.3702C21.0964 27.7388 21.0055 28.1168 20.9694 28.4996C20.9463 28.7367 20.93 28.9778 20.9506 29.215C20.9566 29.2924 20.9652 29.3637 20.9686 29.431C21.0835 29.4513 21.1984 29.4725 21.3142 29.4912C22.2334 29.6446 23.1724 29.784 24.0556 30.0689C24.0547 29.7895 24.0779 29.5085 24.0865 29.2361ZM24.1285 11.9308C24.1054 11.8557 24.0856 11.7829 24.0642 11.7195C23.939 11.3469 23.8421 10.9681 23.7855 10.5822C23.7075 10.0547 23.6929 9.46612 23.8875 8.95111C23.8712 8.95032 23.8541 8.94955 23.8369 8.94876C22.9211 8.90024 22.0087 8.84389 21.0964 8.75231C17.8327 8.42436 14.5802 7.99154 11.3089 7.72621C9.08452 7.54542 6.82242 7.49922 4.61519 7.16659C4.55687 7.61898 4.42312 8.0667 4.40339 8.52456C4.37595 9.13349 4.48827 9.73069 4.75411 10.2911C5.51987 10.3623 6.29332 10.3764 7.07623 10.421C8.64375 10.5102 10.1967 10.7717 11.759 10.911C13.45 11.0628 15.1419 11.199 16.8311 11.3618C18.4895 11.5207 20.1479 11.7054 21.8107 11.8291C22.5824 11.8862 23.355 11.9152 24.1285 11.9308ZM23.5806 31.0332C23.6217 30.9541 23.8747 30.6285 23.8747 30.6285C23.8747 30.6285 17.9442 29.6134 16.6811 29.3504C15.2396 29.0506 13.7921 28.7743 12.343 28.5035C10.8981 28.2327 9.45319 27.9658 8.01343 27.6731C6.78293 27.4226 4.33046 26.7832 4.33046 26.7832L2.08981 27.1135C2.08981 27.1135 3.08023 27.2888 3.57328 27.3772C7.77161 28.1271 11.9674 28.891 16.1606 29.6611C18.6336 30.1151 21.1015 30.6082 23.5806 31.0332ZM23.5514 33.7436C23.6003 33.3484 23.5797 32.9351 23.5514 32.5399C23.5325 32.2776 23.4597 31.9787 23.4425 31.6985C23.3113 31.6742 23.1792 31.6499 23.0481 31.6257C22.7702 31.5748 22.4924 31.5239 22.2146 31.4723C22.1794 31.8652 22.1528 32.2581 22.1434 32.6518C22.1331 33.0854 22.1889 33.5323 22.2008 33.9651C22.4487 33.9964 22.6974 34.0277 22.9452 34.0567C23.0952 34.0739 23.4245 34.0943 23.4511 34.0794C23.5094 34.045 23.4682 34.1021 23.4914 34.0246C23.5188 33.9307 23.5394 33.8391 23.5514 33.7436ZM23.6492 19.9542C23.3928 18.9476 23.4734 17.891 23.5617 16.8641C23.2367 16.9189 22.9108 16.9714 22.5833 17.0175C22.5001 17.0293 22.4118 17.0449 22.3217 17.0598C22.3878 17.6202 22.4495 18.1806 22.4847 18.7433C22.5052 19.0877 22.5267 19.4321 22.543 19.7773C22.5439 19.8062 22.5464 19.836 22.549 19.8665C22.916 19.9002 23.283 19.9307 23.6492 19.9542ZM21.6975 18.7433C21.6984 18.2017 21.7549 16.9345 21.7549 16.9345C21.7549 16.9345 16.5285 16.2865 15.4446 16.1824C13.9345 16.0376 12.421 15.9202 10.917 15.7277C9.71903 15.5743 8.51425 15.4967 7.3146 15.3566C6.7092 15.2862 6.10379 15.2033 5.51042 15.0686C5.20944 14.9997 4.51142 14.8041 4.51142 14.8041C4.51142 14.8041 3.64962 14.8777 3.23288 15.0186C2.81614 15.1594 2.74154 15.3128 2.74154 15.3128C2.74154 15.3128 5.45726 15.6987 6.11924 15.7519C7.07365 15.8286 9.53894 16.0752 9.76961 16.1354C10.0063 16.1973 9.93254 16.4782 9.71558 16.501C8.47476 16.6309 7.13448 16.4861 5.89628 16.3812C5.89457 16.3812 5.8937 16.3812 5.89199 16.3812C5.89799 16.7843 5.83109 17.1999 5.79682 17.5936C5.7651 17.9583 5.73164 18.3278 5.67164 18.6925C6.70836 18.7943 7.74937 18.8608 8.7895 18.9156C11.4289 19.0541 14.0623 19.2036 16.6974 19.3993C17.9965 19.4963 19.2948 19.5918 20.593 19.6896C20.9609 19.717 21.3296 19.7507 21.6992 19.7859C21.6992 19.7828 21.6992 19.7797 21.6992 19.7773C21.6975 19.4321 21.6975 19.0877 21.6975 18.7433ZM21.5543 31.3509C21.3493 31.3134 21.1452 31.2758 20.9403 31.2382C20.8211 31.2163 20.7019 31.1944 20.5827 31.1725C20.4438 31.6914 20.4198 32.2456 20.449 32.7715C20.4652 33.065 20.5004 33.3562 20.5784 33.6419C20.5896 33.6802 20.6007 33.7178 20.6119 33.7538C20.8511 33.7859 21.0895 33.818 21.3287 33.8501C21.2859 33.4454 21.3468 32.9985 21.3733 32.6518C21.4042 32.262 21.4128 31.7658 21.5543 31.3509ZM21.0989 12.5413C21.0912 12.5405 21.0835 12.5398 21.0749 12.539C20.6676 12.5014 20.2603 12.4622 19.8521 12.4231C19.3968 13.1088 19.0701 13.8139 19.0992 14.6506C19.1061 14.8581 19.1378 15.0623 19.1987 15.2619C19.2621 15.4686 19.3908 15.6431 19.4662 15.8419C19.6643 15.8646 19.8624 15.8889 20.0596 15.9132C20.2225 15.9343 20.3872 15.9546 20.551 15.9804C20.3786 15.4435 20.3829 14.8119 20.4352 14.3642C20.5038 13.7881 20.7019 13.0775 21.0989 12.5413ZM20.5784 27.2621C20.3512 27.2246 20.1248 27.187 19.8976 27.1502C19.8281 27.5024 19.7347 27.8523 19.6763 28.2076C19.63 28.4831 19.5829 28.7759 19.6069 29.0561C19.6103 29.0936 19.6155 29.1289 19.6215 29.1633C19.7895 29.1993 19.9576 29.2345 20.1257 29.269C20.1128 29.0334 20.1394 28.7931 20.1771 28.5622C20.2474 28.1364 20.3624 27.6668 20.5784 27.2621ZM19.7861 32.7715C19.7956 32.2033 19.8436 31.6108 20.0699 31.0786C16.1743 30.3624 12.2778 29.647 8.38475 28.9223C7.18855 28.7 5.99402 28.4612 4.79953 28.2257C4.83125 28.718 4.77809 29.2228 4.78067 29.7081C4.78238 30.0509 4.78583 30.3976 4.83042 30.7381C4.84328 30.8414 4.87071 30.9424 4.89731 31.0434C5.71794 31.2289 6.54114 31.4065 7.36605 31.5756C11.4752 32.4177 15.6247 33.0956 19.793 33.645C19.7561 33.321 19.7827 32.9719 19.7861 32.7715ZM18.9783 27.94C19.0504 27.6496 19.1215 27.3303 19.2562 27.0461C18.264 26.8865 17.2702 26.7315 16.2755 26.5781C16.2609 26.8653 16.2052 27.1542 16.1854 27.4367C16.1606 27.7858 16.1674 28.1137 16.2412 28.4464C16.7265 28.5427 17.211 28.6405 17.6946 28.743C18.0651 28.8221 18.4347 28.9043 18.8034 28.9857C18.8068 28.6311 18.8986 28.2624 18.9783 27.94ZM18.9955 6.12639C18.7871 5.67792 18.6817 5.1441 18.6388 4.86703C18.5659 4.38568 18.5504 3.9051 18.6045 3.4214C18.625 3.23746 18.6465 3.02928 18.6936 2.82812C18.6079 2.82892 18.5213 2.82733 18.4338 2.82109C18.2006 2.80623 17.9665 2.78743 17.7324 2.76786C17.777 3.31497 17.6329 3.9192 17.5952 4.43341C17.5686 4.78093 17.5463 5.14175 17.5969 5.48771C17.6278 5.7006 17.7418 5.8673 17.831 6.04341C17.9571 6.05203 18.0831 6.06142 18.2092 6.06925C18.4707 6.08726 18.7322 6.10682 18.9955 6.12639ZM18.2778 13.9611C18.3747 13.4156 18.6002 12.8129 18.9775 12.3386C17.9511 12.2384 16.9255 12.1367 15.8982 12.0388C14.5142 11.9058 13.1242 11.8048 11.7393 11.671C11.5781 11.8095 11.3989 11.9363 11.278 12.121C11.0628 12.4482 10.9264 12.8106 10.8287 13.1808C10.6735 13.7725 10.6006 14.4315 10.8656 14.9998C11.8885 15.1054 12.9098 15.2229 13.9363 15.3105C15.4146 15.4373 16.9007 15.5633 18.379 15.7199C18.3284 15.5625 18.2941 15.4068 18.2701 15.2823C18.1869 14.8409 18.1997 14.4026 18.2778 13.9611ZM17.097 24.356C17.8533 23.8277 17.7127 22.9237 17.4717 22.1809C17.3311 21.7458 17.1253 21.3317 16.8792 20.938C16.7265 20.6938 16.5387 20.4723 16.3647 20.2422C16.0131 20.2156 15.6615 20.189 15.3091 20.1624C15.8013 20.7901 16.1606 21.5517 16.3716 22.2506C16.525 22.7617 16.5945 23.308 16.4599 23.8293C16.4196 23.9866 16.3579 24.1494 16.2755 24.2997C16.5482 24.3201 16.8217 24.3389 17.0953 24.3584C17.0953 24.3576 17.0961 24.3568 17.097 24.356ZM17.0584 2.70839C16.8183 2.6857 16.579 2.66378 16.3407 2.64186C16.2772 2.63559 16.2146 2.63091 16.152 2.62464C15.9779 3.18426 15.899 3.80965 15.8811 4.37003C15.8691 4.71834 15.8819 5.07601 15.99 5.41258C16.0285 5.53311 16.0783 5.66538 16.1666 5.76402C16.2292 5.83367 16.3098 5.88063 16.3818 5.93698C16.5336 5.94872 16.6854 5.96046 16.8371 5.9722C16.7265 5.5558 16.748 5.06586 16.7737 4.74886C16.8097 4.31056 16.8792 3.87379 16.9529 3.43941C16.9941 3.20068 17.0172 2.9518 17.0584 2.70839ZM15.6392 26.4802C15.3451 26.4356 15.051 26.391 14.7569 26.3456C14.6968 26.6743 14.624 26.9945 14.6411 27.3412C14.6548 27.5979 14.7826 27.8938 14.8272 28.174C15.0175 28.21 15.2079 28.2452 15.3983 28.2812C15.3794 27.9979 15.406 27.7083 15.4437 27.4367C15.4883 27.1181 15.5406 26.7925 15.6392 26.4802ZM15.6083 23.4755C15.6787 23.0372 15.5723 22.5879 15.4308 22.1708C15.1899 21.4616 14.7346 20.8065 14.4704 20.1037C13.2159 20.0184 11.9597 19.9518 10.7043 19.8814C10.3227 20.614 9.94199 21.32 9.9034 22.1582C9.86997 22.8799 10.2275 23.8496 10.3947 24.0351C11.9563 24.1635 13.7236 24.1017 15.2859 24.2237C15.3082 24.1642 15.3357 24.104 15.3751 24.0437C15.4917 23.8653 15.5749 23.6821 15.6083 23.4755ZM15.105 3.7204C15.1659 3.35567 15.2602 2.92284 15.4591 2.56359C13.9028 2.42661 12.3456 2.30061 10.7909 2.1558C10.1572 2.0971 9.52267 2.04075 8.88812 1.99067C8.8984 2.47749 8.80923 2.97843 8.8504 3.46289C8.90273 4.0781 9.04335 4.70972 9.58186 5.11986C10.4359 5.22708 11.2857 5.36953 12.1372 5.4893C13.1568 5.63254 14.1875 5.74445 15.2191 5.83837C14.9335 5.17385 14.9892 4.41152 15.105 3.7204ZM13.9302 28.0081C13.8976 27.7952 13.8976 27.576 13.895 27.3968C13.889 27.0485 13.895 26.6039 14.0365 26.236C13.1319 26.0975 12.2272 25.9598 11.3226 25.8189C11.2642 26.211 11.2137 26.5945 11.2463 27.0031C11.2557 27.1119 11.3072 27.3295 11.3234 27.5416C12.1929 27.695 13.0616 27.8492 13.9302 28.0081ZM10.6949 11.7171C10.7258 11.6733 10.7609 11.6248 10.7995 11.5747C10.3433 11.5246 9.88712 11.4714 9.43179 11.4181C8.97046 11.7797 8.76806 12.4247 8.66091 12.9405C8.5237 13.5995 8.56574 14.2781 8.98248 14.8299C9.31347 14.8557 9.64446 14.8815 9.97545 14.9121C10.0038 14.9152 10.0329 14.9176 10.0612 14.9207C9.87426 14.322 9.98919 13.5682 10.1152 13.0485C10.2284 12.5867 10.4153 12.1179 10.6949 11.7171ZM10.4942 26.5867C10.5097 26.3042 10.5328 25.9926 10.6263 25.7101C9.73792 25.5708 8.85124 25.4291 7.96546 25.2804C7.91314 25.8244 7.8514 26.3597 7.87713 26.9092C8.20125 26.9757 8.52541 27.0399 8.84869 27.0993C9.39578 27.1987 9.94286 27.2966 10.4899 27.3936C10.4565 27.09 10.4848 26.7628 10.4942 26.5867ZM9.99602 19.8407C9.72677 19.825 9.45838 19.8086 9.1891 19.7914C8.93699 20.1185 8.53569 20.3917 8.31615 20.7189C8.08977 21.057 8.06063 21.4499 8.03574 21.8365C8.01088 22.2169 8.02287 22.6177 8.18581 22.9754C8.2664 23.153 8.73376 23.7878 8.83492 23.8778C8.84092 23.8832 8.84608 23.8887 8.8512 23.8942C9.03728 23.9091 9.40599 23.9639 9.59207 23.9788C9.58607 23.9678 9.12387 22.8 9.10243 22.3257C9.05963 21.4006 9.41206 20.5592 9.99602 19.8407ZM8.25016 19.7311C8.25103 19.7303 8.25187 19.7303 8.25274 19.7295C7.69708 19.6904 7.14226 19.6489 6.58834 19.5996C5.87491 19.5355 5.16318 19.458 4.454 19.3625C4.17618 19.3249 3.88461 19.2952 3.59737 19.2529C3.55362 19.4157 3.51162 19.5793 3.49105 19.746C3.43618 20.1921 3.44904 20.6477 3.47561 21.0946C3.5219 21.8577 3.63767 22.6216 3.8349 23.3659C4.49176 23.5334 7.1706 23.7784 7.7091 23.8097C7.65424 23.7291 7.4707 23.4427 7.42786 23.3566C7.20235 22.901 7.15261 22.3986 7.19378 21.9039C7.23578 21.4061 7.29498 20.8824 7.57364 20.4449C7.74937 20.1686 7.98948 19.9416 8.25016 19.7311ZM8.43624 5.0048C8.22101 4.60797 8.12323 4.15246 8.09238 3.71181C8.05467 3.19209 8.07436 2.49629 8.27759 1.9445C7.85227 1.91399 7.42608 1.88815 6.99993 1.86623C6.90988 2.36714 6.80614 2.84069 6.83786 3.36664C6.86875 3.8926 6.98623 4.44051 7.24861 4.91558C7.64388 4.95392 8.04264 4.97582 8.43624 5.0048ZM7.98003 12.9115C8.05805 12.4396 8.23301 11.7985 8.57341 11.3211C7.80852 11.2381 7.04277 11.1661 6.27189 11.1293C5.6965 11.1019 5.0448 11.0972 4.41026 11.026C3.87175 11.6709 3.80572 12.5749 4.06382 13.3428C4.18043 13.6911 4.36396 14.0621 4.75669 14.1865C5.33807 14.3697 5.93145 14.4965 6.53856 14.5865C7.07878 14.6663 7.62244 14.7196 8.16695 14.765C7.88229 14.2038 7.88483 13.4915 7.98003 12.9115ZM7.20915 25.84C7.23829 25.6373 7.25973 25.3954 7.32234 25.1716C7.00505 25.1168 6.68863 25.062 6.37221 25.0057C5.92803 24.9258 5.4804 24.846 5.03535 24.7591C5.02936 25.0417 4.97191 25.3297 4.95047 25.6044C4.93332 25.8338 4.98307 26.11 4.95389 26.355C5.6759 26.4599 6.39449 26.6039 7.1105 26.7518C7.11395 26.445 7.16711 26.1304 7.20915 25.84ZM6.41596 4.79817C6.25732 4.35673 6.19042 3.88868 6.17073 3.42376C6.15099 2.94553 6.15615 2.33815 6.33366 1.83724C6.01724 1.8255 5.70082 1.81688 5.38353 1.81296C5.2146 2.263 5.29948 2.86567 5.34752 3.30635C5.38095 3.61473 5.43411 3.92388 5.52332 4.22367C5.54047 4.28237 5.5945 4.489 5.65108 4.60093C5.67593 4.60329 5.70082 4.60797 5.72738 4.61659C5.95205 4.69407 6.18272 4.75277 6.41596 4.79817ZM5.2 17.473C5.25832 17.12 5.28659 16.7029 5.41093 16.3374C5.03535 16.3013 4.66149 16.2591 4.28846 16.2082C4.27559 16.987 4.36222 17.7673 4.34849 18.5469C4.53115 18.568 4.71207 18.5884 4.89215 18.6095C4.94618 18.6158 5.00105 18.6212 5.05508 18.6275C5.07652 18.2401 5.13742 17.8519 5.2 17.473ZM4.27905 25.6764C4.31764 25.3414 4.3382 24.9751 4.4128 24.6315C4.20187 24.5861 3.99264 24.5369 3.78338 24.4844C3.78596 24.5916 3.54756 24.9407 3.54156 25.2804C3.5364 25.6005 3.78338 26.0075 3.78338 26.0075L4.2353 26.1953C4.23533 26.1953 4.26705 25.7813 4.27905 25.6764ZM4.07498 28.084C3.70969 28.0128 3.34352 27.9423 2.97736 27.8719C2.83587 28.7524 2.85044 29.6564 2.75956 30.5432C3.10258 30.6262 3.44556 30.7083 3.78941 30.789C3.84857 30.8031 3.90689 30.8156 3.96604 30.8297C3.93603 30.4829 3.96691 30.1205 3.97033 29.8998C3.97978 29.3026 3.98407 28.6812 4.07498 28.084ZM3.75427 17.2758C3.77742 16.9322 3.78341 16.5143 3.89148 16.1527C3.47989 16.0955 3.02111 16.0439 2.61294 15.9187C2.64038 16.2357 2.72442 16.5511 2.76559 16.8634C2.81704 17.25 2.74415 17.6406 2.78961 18.0241C2.81704 18.2597 2.94051 18.2996 3.19436 18.3599C3.37528 18.4021 3.55882 18.4358 3.74486 18.4655C3.72767 18.0687 3.72684 17.6726 3.75427 17.2758ZM3.55704 8.65447C3.58189 8.1379 3.66852 7.5493 3.88719 7.04527C3.50904 6.97638 3.13259 6.89735 2.75872 6.80577C2.68325 7.8671 2.5572 9.08653 3.03913 9.9929C3.28782 10.0618 3.53734 10.1173 3.78687 10.162C3.61877 9.67666 3.53302 9.1781 3.55704 8.65447ZM1.99725 30.3577C2.11989 29.4811 2.19104 28.6241 2.48947 27.7795C1.96212 27.6809 1.43389 27.5862 0.905667 27.4946C0.948545 27.9196 0.921947 28.3548 0.90138 28.7775C0.880813 29.2079 0.852507 29.64 0.795059 30.0681C0.920239 30.1034 1.08662 30.1268 1.20581 30.1573C1.46903 30.2246 1.73312 30.2912 1.99725 30.3577Z" fill="#280412"/>
<path d="M33.4855 10.3952C33.6261 10.4234 33.5704 10.5126 33.4709 10.5228C33.4375 10.5204 33.404 10.5243 33.3714 10.5337C32.9881 10.5737 32.6057 10.6128 32.2232 10.6543C31.6342 10.7177 31.0528 10.8539 30.4697 10.9728C30.9138 10.6574 31.358 10.3436 31.8013 10.0273C32.3656 10.1392 32.9238 10.2801 33.4855 10.3952Z" fill="#D36448"/>
<path d="M32.6211 23.5654C32.6289 23.6679 29.9843 24.7786 29.2306 25.1175C28.2968 25.537 27.3544 25.9456 26.4369 26.3933C25.7449 26.7314 24.986 27.0147 24.3334 27.4178C23.4519 27.1306 22.4966 26.9866 21.5851 26.8175C20.0776 26.5381 18.5633 26.2908 17.049 26.0442C14.2312 25.5848 10.3253 25.0345 7.51357 24.5422C7.02223 24.4561 7.37465 24.3552 7.92773 24.3912C8.93785 24.4577 11.0284 24.6471 12.0352 24.7316C15.1813 24.9939 18.3318 25.2193 21.4874 25.3547C23.054 25.422 24.709 25.6865 26.268 25.4752C26.9454 25.4588 27.6134 25.1786 28.2102 24.9085C28.9039 24.5947 29.5513 24.2025 30.2039 23.8237C30.4748 23.6664 30.7586 23.5232 31.0459 23.3823C31.7568 23.4151 32.6005 23.2836 32.6211 23.5654Z" fill="#8CC8BE"/>
<path d="M31.9781 28.419C32.0004 28.7344 31.9858 29.053 31.9995 29.3676C30.7527 30.0588 29.4261 30.6192 28.1879 31.3346C27.3767 31.8034 26.6067 32.3278 25.8281 32.8397C25.4293 33.1003 24.9989 33.339 24.5787 33.5879C24.5915 33.2905 24.5692 32.997 24.5564 32.7614C24.5521 32.6699 24.5444 32.5791 24.5366 32.4883C24.8419 32.3036 25.1249 32.0914 25.4061 31.8731C25.7937 31.5725 26.2259 31.2962 26.586 30.9707C26.7421 30.8298 26.5758 30.6427 26.3914 30.6654C25.9284 30.7241 25.5167 31.027 25.1609 31.2868C24.9276 31.4575 24.7047 31.6398 24.4775 31.8183C24.4749 31.733 24.5632 31.2548 24.631 31.1068L24.7982 30.559C26.376 29.6236 28.109 28.949 29.7717 28.153C30.4345 27.836 31.1094 27.5393 31.7765 27.2294C31.8271 27.4227 31.8682 27.6184 31.9008 27.8156C31.16 28.0488 30.45 28.43 29.7837 28.7862C29.0557 29.1744 28.1673 29.6064 27.6399 30.224C27.5044 30.3821 27.6665 30.5778 27.8706 30.4971C28.6535 30.188 29.3652 29.6769 30.1095 29.2957C30.7192 28.9826 31.3615 28.7196 31.9781 28.419Z" fill="#F0F0F5"/>
<path d="M30.0538 6.27035C29.6508 6.49734 29.246 6.7243 28.8473 6.95833C28.0695 7.41387 27.1725 7.88112 26.5217 8.501C25.8383 8.25444 24.9731 8.29125 24.2485 8.25603C23.4493 8.21769 22.6492 8.1887 21.8526 8.12688C20.2225 7.99929 18.5976 7.81223 16.9726 7.64162C15.3468 7.47098 13.7209 7.29566 12.0926 7.14774C10.6057 7.01312 9.11361 6.94347 7.62326 6.83856C6.10807 6.73213 4.58858 6.58185 3.10852 6.26249C3.539 6.00187 4.2267 5.89385 4.61685 5.80619C5.16735 5.68175 5.74961 5.61286 6.29669 5.46338C6.84719 5.60583 7.42345 5.65591 8.00142 5.70132C9.0433 5.78194 10.068 5.93378 11.0987 6.09265C13.2545 6.42531 15.4531 6.68122 17.6337 6.82682C18.631 6.89415 19.63 7.0037 20.629 7.03424C22.6518 7.09607 24.661 6.74778 26.6667 6.5662C27.7951 6.46368 28.9244 6.36504 30.0538 6.27035Z" fill="#FAC950"/>
<path d="M30.5426 1.24945C30.5426 1.24945 23.373 1.59226 21.4736 1.76211C21.0388 1.80125 20.6049 1.85056 20.1745 1.9171C19.7775 1.97736 19.3839 2.09948 18.9826 2.12216C18.2726 2.1613 17.5394 2.04469 16.832 1.98834C15.0955 1.8506 13.3582 1.72848 11.6227 1.579C11.1793 1.54065 9.54151 1.5109 9.09817 1.47489C9.01841 1.46862 9.08702 1.31287 9.7773 1.23068C10.8946 1.09762 14.7783 0.535645 14.7783 0.535645C14.7783 0.535645 30.5349 0.758722 30.5426 1.24945Z" fill="#8CC8BE"/>
<path d="M26.2474 20.4622C26.2388 20.5194 26.2311 20.5757 26.2234 20.6313C26.1693 21.0234 26.1462 21.4194 26.1213 21.8139C26.0664 22.6874 26.0476 23.5656 25.9301 24.4344C25.9112 24.569 25.8606 24.7287 25.8392 24.8844C25.269 24.8664 24.6996 24.8578 24.1294 24.8101C23.4657 24.7553 22.8037 24.6841 22.1374 24.6488C20.8477 24.58 19.558 24.5158 18.2683 24.436C18.6731 23.7855 18.6148 22.8729 18.403 22.1841C18.2323 21.6276 17.9622 21.0789 17.6158 20.5952C17.5515 20.5052 17.4829 20.4129 17.41 20.3213C18.2169 20.3823 19.0238 20.4434 19.8307 20.5044C21.285 20.6148 22.7436 20.7721 24.1997 20.8527C24.6087 20.8754 25.1772 20.9584 25.5785 20.8316C25.7689 20.7706 26.1539 20.481 26.2474 20.4622ZM25.6686 23.8247C25.732 23.0787 25.7415 22.217 25.5468 21.4867C25.4816 21.2418 25.0657 21.2402 25.0014 21.4867C24.8368 22.1168 24.8514 22.8212 24.8522 23.485C24.2082 23.5233 23.5497 23.4983 22.9091 23.4904C22.5378 23.4865 22.1665 23.4803 21.7952 23.4756C21.4651 23.4717 21.1367 23.4067 20.8897 23.6399C20.7731 23.7503 20.7731 23.9256 20.8897 24.036C21.135 24.2685 21.4668 24.2058 21.7952 24.2082C22.1665 24.2113 22.5378 24.216 22.9091 24.2191C23.692 24.2246 24.4775 24.1855 25.2595 24.198C25.4936 24.2019 25.6523 24.0235 25.6686 23.8247Z" fill="#FAC950"/>
<path d="M26.2225 9.09042C26.2748 10.0359 26.063 11.0127 26.1925 11.9535C25.8023 11.9512 25.4113 11.9488 25.0211 11.9449C24.9474 11.6122 24.7853 11.2491 24.7467 11.1184C24.6344 10.7349 24.5512 10.3428 24.5444 9.94436C24.5392 9.61796 24.6052 9.30882 24.6764 8.99573C24.835 9.00511 24.9945 9.0145 25.1532 9.02548C25.5142 9.04972 25.8658 9.0951 26.2225 9.09042Z" fill="#FAC950"/>
<path d="M25.5468 21.4867C25.7414 22.2169 25.732 23.0787 25.6685 23.8246C25.6522 24.0234 25.4936 24.2019 25.2595 24.1979C24.4774 24.1854 23.692 24.2245 22.9091 24.2191C22.5378 24.216 22.1665 24.2112 21.7952 24.2081C21.4668 24.2058 21.1349 24.2684 20.8897 24.0359C20.7731 23.9256 20.7731 23.7502 20.8897 23.6399C21.1366 23.4067 21.4651 23.4716 21.7952 23.4755C22.1665 23.4802 22.5378 23.4865 22.9091 23.4904C23.5496 23.4982 24.2082 23.5232 24.8522 23.4849C24.8513 22.8212 24.8367 22.1167 25.0014 21.4867C25.0657 21.2402 25.4816 21.2417 25.5468 21.4867Z" fill="#280412"/>
<path d="M25.2835 19.0399C25.2861 19.1433 25.2595 19.7678 25.1987 20.005C24.98 19.9737 24.7347 19.9995 24.5135 19.9948C24.4981 19.994 24.4826 19.9932 24.4672 19.9924C24.4621 19.9651 24.4561 19.9385 24.4466 19.9142C24.4501 19.9134 24.4526 19.9126 24.4561 19.9118C24.1165 18.9123 24.1834 17.815 24.1354 16.7685C24.4767 16.7114 24.8197 16.655 25.1618 16.5995C25.0666 17.408 25.2578 18.2205 25.2835 19.0399Z" fill="#08736D"/>
<path d="M24.1165 27.9227C24.1139 28.361 24.1002 28.7985 24.0865 29.236C24.0779 29.5084 24.0547 29.7894 24.0556 30.0688C23.1724 29.7839 22.2334 29.6446 21.3142 29.4912C21.1984 29.4724 21.0835 29.4513 20.9686 29.4309C20.9652 29.3636 20.9566 29.2924 20.9506 29.2149C20.93 28.9778 20.9463 28.7367 20.9694 28.4995C21.0054 28.1168 21.0964 27.7388 21.2155 27.3701C22.1871 27.536 23.1544 27.7168 24.1165 27.9227Z" fill="#8CC8BE"/>
<path d="M24.0642 11.7194C24.0857 11.7828 24.1054 11.8556 24.1286 11.9308C23.3551 11.9151 22.5825 11.8862 21.8107 11.829C20.148 11.7053 18.4896 11.5206 16.8312 11.3617C15.1419 11.1989 13.4501 11.0627 11.7591 10.9109C10.1967 10.7716 8.64377 10.5101 7.07628 10.4209C6.29338 10.3763 5.51992 10.3622 4.75416 10.291C4.48832 9.7306 4.37601 9.13341 4.40344 8.52447C4.42317 8.06661 4.55693 7.61889 4.61525 7.1665C6.82244 7.49916 9.08453 7.54533 11.3089 7.72612C14.5803 7.99145 17.8328 8.42428 21.0964 8.75223C22.0088 8.8438 22.9212 8.90015 23.837 8.94867C23.8541 8.94947 23.8713 8.95023 23.8876 8.95103C23.6929 9.46604 23.7075 10.0546 23.7855 10.5822C23.8421 10.968 23.939 11.3469 24.0642 11.7194ZM22.0723 10.5282C22.2112 10.4961 22.2163 10.2965 22.0723 10.2668C21.7353 10.1979 21.4386 10.1369 21.0887 10.1298C20.7183 10.1228 20.3513 10.0813 19.9817 10.0664C19.631 10.0515 19.3068 9.99594 18.9612 9.94114C18.6825 9.89654 16.8775 9.69303 16.1178 9.6124C15.3143 9.52709 14.5159 9.40889 13.7125 9.32123C13.1714 9.26253 12.6234 9.28601 12.0806 9.25234C11.5876 9.22104 11.0139 9.17095 10.6795 8.80151C10.4942 8.59645 10.165 8.6974 10.0243 8.87823C9.60927 9.41201 8.96099 9.16704 8.60344 8.71229C8.44737 8.51505 8.0452 8.43678 7.91057 8.71229C7.77936 8.98074 7.55814 9.19364 7.21771 9.05666C6.93217 8.9424 6.84555 8.64888 6.96303 8.39685C7.06851 8.16986 6.79926 7.94914 6.57971 8.12681C6.00861 8.58703 6.16126 9.3071 6.79922 9.646C7.32058 9.92228 7.90367 9.82055 8.29556 9.47695C8.91895 9.97942 9.74386 10.0835 10.393 9.60374C11.1871 10.1383 12.4399 10.0217 13.3548 10.071C14.0974 10.1117 14.8357 10.2659 15.5757 10.3434C16.4384 10.4334 17.3233 10.3168 18.174 10.4506C18.493 10.9039 21.3417 10.6988 22.0723 10.5282Z" fill="#FAC950"/>
<path d="M23.8747 30.6285C23.8747 30.6285 23.6217 30.9541 23.5806 31.0332C21.1015 30.6082 18.6336 30.1151 16.1606 29.6611C11.9674 28.891 7.77164 28.1271 3.57332 27.3773C3.08027 27.2888 2.08984 27.1135 2.08984 27.1135L4.3305 26.7832C4.3305 26.7832 6.78296 27.4226 8.01346 27.6731C9.45319 27.9658 10.8981 28.2327 12.343 28.5035C13.7922 28.7743 15.2396 29.0507 16.6811 29.3504C17.9442 29.6134 23.8747 30.6285 23.8747 30.6285Z" fill="#08736D"/>
<path d="M23.5514 32.5399C23.5797 32.9351 23.6003 33.3484 23.5514 33.7436C23.5394 33.8391 23.5188 33.9307 23.4914 34.0246C23.4682 34.1021 23.5094 34.045 23.4511 34.0794C23.4245 34.0943 23.0952 34.074 22.9452 34.0567C22.6974 34.0278 22.4487 33.9965 22.2009 33.9652C22.1889 33.5323 22.1331 33.0854 22.1434 32.6518C22.1529 32.2581 22.1794 31.8652 22.2146 31.4723C22.4924 31.524 22.7703 31.5748 23.0481 31.6257C23.1793 31.65 23.3113 31.6742 23.4425 31.6985C23.4597 31.9786 23.5325 32.2776 23.5514 32.5399Z" fill="#08736D"/>
<path d="M23.5617 16.8641C23.4733 17.891 23.3927 18.9477 23.6491 19.9542C23.283 19.9307 22.916 19.9002 22.549 19.8665C22.5464 19.836 22.5438 19.8063 22.543 19.7773C22.5267 19.4322 22.5053 19.0878 22.4847 18.7434C22.4495 18.1806 22.3877 17.6202 22.3217 17.0598C22.4118 17.045 22.5001 17.0293 22.5833 17.0176C22.9108 16.9714 23.2367 16.9189 23.5617 16.8641Z" fill="#08736D"/>
<path d="M22.0722 10.2668C22.2163 10.2966 22.2111 10.4961 22.0722 10.5283C21.3416 10.6989 18.493 10.9039 18.174 10.4508C17.3234 10.3169 16.4384 10.4336 15.5758 10.3435C14.8358 10.2661 14.0975 10.1119 13.3549 10.0712C12.4399 10.0219 11.1871 10.1385 10.3931 9.6039C9.74394 10.0837 8.91903 9.97958 8.2956 9.4771C7.90371 9.82071 7.32062 9.92246 6.79926 9.64615C6.16127 9.30726 6.00865 8.58718 6.57975 8.12696C6.79926 7.94929 7.06852 8.17001 6.96307 8.397C6.84559 8.64903 6.93218 8.94253 7.21775 9.05682C7.55819 9.19379 7.7794 8.9809 7.91061 8.71245C8.04524 8.43693 8.44742 8.51521 8.60348 8.71245C8.96107 9.16719 9.60931 9.41216 10.0244 8.87838C10.165 8.69759 10.4943 8.5966 10.6795 8.80167C11.0139 9.17111 11.5876 9.22119 12.0807 9.2525C12.6235 9.28616 13.1714 9.26268 13.7125 9.32139C14.516 9.40904 15.3143 9.52722 16.1178 9.61255C16.8776 9.69318 18.6826 9.89666 18.9613 9.9413C19.3069 9.99609 19.631 10.0516 19.9817 10.0665C20.3513 10.0814 20.7183 10.1229 21.0888 10.13C21.4385 10.1369 21.7352 10.1979 22.0722 10.2668Z" fill="#280412"/>
<path d="M21.7549 16.9346C21.7549 16.9346 21.6983 18.2018 21.6974 18.7434C21.6974 19.0877 21.6974 19.4321 21.6991 19.7773C21.6991 19.7797 21.6991 19.7828 21.6991 19.7859C21.3296 19.7507 20.9608 19.717 20.593 19.6896C19.2947 19.5918 17.9965 19.4963 16.6973 19.3993C14.0622 19.2036 11.4288 19.0541 8.78942 18.9156C7.74929 18.8608 6.70828 18.7942 5.67156 18.6925C5.73159 18.3278 5.76502 17.9583 5.79674 17.5936C5.83104 17.1999 5.89794 16.7843 5.89191 16.3812C5.89362 16.3812 5.89449 16.3812 5.8962 16.3812C7.13444 16.4861 8.47471 16.6309 9.7155 16.5009C9.93246 16.4783 10.0062 16.1973 9.76953 16.1354C9.53886 16.0752 7.07354 15.8286 6.11916 15.7519C5.45718 15.6987 2.74146 15.3128 2.74146 15.3128C2.74146 15.3128 2.81605 15.1594 3.2328 15.0185C3.64954 14.8776 4.51134 14.8041 4.51134 14.8041C4.51134 14.8041 5.20933 14.9998 5.51034 15.0686C6.10371 15.2032 6.70912 15.2862 7.31452 15.3566C8.51417 15.4967 9.71895 15.5742 10.9169 15.7276C12.4209 15.9202 13.9344 16.0376 15.4445 16.1824C16.5284 16.2865 21.7549 16.9346 21.7549 16.9346ZM18.0102 17.1655C18.1954 17.1255 18.204 16.8508 18.0102 16.8164C16.91 16.6184 15.7275 16.6418 14.6093 16.5542C14.0339 16.5088 13.4577 16.4579 12.8806 16.425C12.4656 16.4015 11.8345 16.2849 11.4658 16.4939C11.3337 16.5683 11.338 16.7358 11.4658 16.8117C11.8268 17.0253 12.4622 16.9533 12.8806 16.9823C13.4577 17.0223 14.0331 17.0684 14.6093 17.1154C15.6992 17.2038 16.9306 17.3956 18.0102 17.1655Z" fill="#08736D"/>
<path d="M20.9403 31.2383C21.1452 31.2758 21.3493 31.3134 21.5543 31.351C21.4128 31.7658 21.4042 32.262 21.3733 32.6518C21.3467 32.9985 21.2859 33.4454 21.3287 33.8501C21.0895 33.818 20.8511 33.7859 20.6118 33.7538C20.6007 33.7178 20.5895 33.6802 20.5784 33.6419C20.5004 33.3562 20.4652 33.065 20.4489 32.7715C20.4198 32.2455 20.4438 31.6914 20.5827 31.1725C20.7019 31.1944 20.8211 31.2163 20.9403 31.2383Z" fill="#8CC8BE"/>
<path d="M21.0749 12.539C21.0835 12.5398 21.0912 12.5406 21.0989 12.5414C20.7019 13.0775 20.5038 13.7882 20.4352 14.3643C20.3829 14.812 20.3786 15.4436 20.551 15.9806C20.3872 15.9547 20.2226 15.9344 20.0597 15.9133C19.8624 15.889 19.6644 15.8647 19.4663 15.842C19.3908 15.6432 19.2622 15.4687 19.1987 15.262C19.1378 15.0624 19.1061 14.8582 19.0993 14.6507C19.0701 13.8141 19.3968 13.1088 19.8522 12.4232C20.2603 12.4624 20.6676 12.5015 21.0749 12.539Z" fill="#FAC950"/>
<path d="M19.8976 27.1503C20.1248 27.1871 20.3512 27.2246 20.5784 27.2622C20.3623 27.6669 20.2474 28.1365 20.1771 28.5623C20.1394 28.7932 20.1128 29.0335 20.1257 29.269C19.9576 29.2346 19.7895 29.1994 19.6215 29.1634C19.6155 29.129 19.6103 29.0937 19.6069 29.0562C19.5829 28.776 19.63 28.4832 19.6763 28.2077C19.7346 27.8523 19.8281 27.5025 19.8976 27.1503Z" fill="#FAC950"/>
<path d="M20.0699 31.0785C19.8436 31.6107 19.7955 32.2032 19.7861 32.7714C19.7827 32.9718 19.7561 33.3209 19.793 33.6449C15.6247 33.0955 11.4752 32.4177 7.36605 31.5755C6.54114 31.4064 5.71793 31.2288 4.89731 31.0433C4.87071 30.9423 4.84328 30.8414 4.83041 30.738C4.78583 30.3975 4.78238 30.0508 4.78067 29.708C4.77809 29.2227 4.83125 28.7179 4.79953 28.2256C5.99402 28.4612 7.18851 28.6999 8.38475 28.9222C12.2778 29.647 16.1743 30.3624 20.0699 31.0785Z" fill="#08736D"/>
<path d="M19.2562 27.0462C19.1215 27.3303 19.0504 27.6497 18.9783 27.94C18.8986 28.2625 18.8068 28.6312 18.8034 28.9857C18.4347 28.9043 18.0651 28.8221 17.6947 28.7431C17.211 28.6405 16.7266 28.5427 16.2412 28.4464C16.1675 28.1138 16.1606 27.7858 16.1855 27.4367C16.2052 27.1542 16.2609 26.8654 16.2755 26.5781C17.2702 26.7316 18.264 26.8865 19.2562 27.0462Z" fill="#8CC8BE"/>
<path d="M18.6388 4.86699C18.6817 5.14407 18.7872 5.67785 18.9955 6.12636C18.7323 6.10679 18.4707 6.08722 18.2092 6.06921C18.0832 6.06139 17.9571 6.052 17.8311 6.04338C17.7419 5.86726 17.6278 5.70057 17.5969 5.48767C17.5464 5.14171 17.5686 4.78089 17.5952 4.43338C17.633 3.91916 17.777 3.3149 17.7324 2.76782C17.9665 2.78739 18.2006 2.80616 18.4339 2.82105C18.5213 2.82732 18.608 2.82888 18.6937 2.82809C18.6465 3.02924 18.6251 3.23743 18.6045 3.42137C18.5505 3.90507 18.5659 4.38565 18.6388 4.86699Z" fill="#8CC8BE"/>
<path d="M18.9775 12.3387C18.6002 12.813 18.3746 13.4156 18.2777 13.9612C18.1997 14.4026 18.1869 14.8409 18.27 15.2824C18.2941 15.4068 18.3284 15.5626 18.3789 15.7199C16.9006 15.5633 15.4146 15.4373 13.9362 15.3106C12.9098 15.2229 11.8885 15.1055 10.8655 14.9998C10.6005 14.4316 10.6734 13.7726 10.8286 13.1808C10.9264 12.8106 11.0627 12.4482 11.278 12.1211C11.3988 11.9364 11.5781 11.8096 11.7393 11.671C13.1241 11.8048 14.5142 11.9058 15.8981 12.0389C16.9255 12.1367 17.9511 12.2385 18.9775 12.3387Z" fill="#D36448"/>
<path d="M18.0103 16.8164C18.2041 16.8509 18.1955 17.1256 18.0103 17.1655C16.9307 17.3956 15.6993 17.2038 14.6094 17.1154C14.0332 17.0685 13.4578 17.0223 12.8807 16.9824C12.4623 16.9534 11.8268 17.0254 11.4658 16.8117C11.3381 16.7358 11.3338 16.5683 11.4658 16.4939C11.8345 16.285 12.4657 16.4016 12.8807 16.4251C13.4578 16.4579 14.034 16.5088 14.6094 16.5542C15.7276 16.6419 16.9101 16.6184 18.0103 16.8164Z" fill="#280412"/>
<path d="M17.4717 22.1809C17.7127 22.9237 17.8533 23.8277 17.097 24.356C17.0961 24.3568 17.0953 24.3576 17.0953 24.3584C16.8217 24.3388 16.5482 24.32 16.2755 24.2997C16.3578 24.1494 16.4196 23.9866 16.4599 23.8293C16.5945 23.308 16.525 22.7617 16.3715 22.2506C16.1606 21.5516 15.8013 20.7901 15.3091 20.1624C15.6615 20.189 16.0131 20.2156 16.3647 20.2422C16.5387 20.4723 16.7265 20.6938 16.8791 20.938C17.1253 21.3317 17.3311 21.7457 17.4717 22.1809Z" fill="#D36448"/>
<path d="M16.3407 2.64185C16.5791 2.66377 16.8184 2.68569 17.0584 2.70838C17.0173 2.95179 16.9941 3.2007 16.953 3.4394C16.8792 3.87378 16.8097 4.31055 16.7737 4.74885C16.748 5.06585 16.7266 5.55579 16.8372 5.97219C16.6854 5.96045 16.5336 5.94871 16.3819 5.93697C16.3098 5.88062 16.2292 5.83366 16.1666 5.76401C16.0783 5.6654 16.0286 5.5331 15.99 5.41258C15.882 5.076 15.8691 4.71833 15.8811 4.37002C15.8991 3.80961 15.978 3.18425 16.1521 2.62463C16.2147 2.63087 16.2772 2.63558 16.3407 2.64185Z" fill="#08736D"/>
<path d="M14.7569 26.3456C15.051 26.391 15.3451 26.4356 15.6393 26.4802C15.5406 26.7925 15.4883 27.1181 15.4437 27.4367C15.406 27.7083 15.3794 27.9978 15.3983 28.2812C15.2079 28.2452 15.0175 28.21 14.8272 28.1739C14.7826 27.8938 14.6548 27.5979 14.6411 27.3412C14.624 26.9944 14.6969 26.6743 14.7569 26.3456Z" fill="#FAC950"/>
<path d="M15.4309 22.1708C15.5724 22.588 15.6787 23.0373 15.6084 23.4755C15.575 23.6822 15.4918 23.8653 15.3751 24.0438C15.3357 24.1041 15.3082 24.1643 15.286 24.2238C13.7236 24.1017 11.9563 24.1636 10.3948 24.0352C10.2276 23.8497 9.86998 22.8799 9.90344 22.1583C9.94203 21.3201 10.3228 20.614 10.7043 19.8815C11.9597 19.9519 13.2159 20.0184 14.4705 20.1037C14.7346 20.8066 15.1899 21.4617 15.4309 22.1708Z" fill="#FAC950"/>
<path d="M15.4591 2.56352C15.2602 2.92278 15.1659 3.3556 15.105 3.72033C14.9892 4.41145 14.9335 5.17378 15.2191 5.83831C14.1875 5.74438 13.1568 5.63244 12.1372 5.48923C11.2857 5.36947 10.4359 5.22702 9.58186 5.11979C9.04335 4.70965 8.90273 4.07803 8.8504 3.46283C8.80923 2.97833 8.89844 2.47742 8.88812 1.9906C9.52266 2.04068 10.1572 2.09703 10.7909 2.15574C12.3456 2.30054 13.9028 2.42654 15.4591 2.56352ZM13.6258 4.71824C13.8745 4.80043 14.0134 4.53119 13.9311 4.35587C13.8127 4.10384 13.5889 3.91442 13.474 3.65615C13.3771 3.43934 13.1062 3.34621 12.9029 3.51841C12.8026 3.60295 12.7109 3.6867 12.6285 3.77436C12.4862 3.59748 12.3164 3.44249 12.1098 3.30787C12.0223 3.25073 11.8542 3.24761 11.7667 3.30787C11.6012 3.42213 11.4632 3.55284 11.3414 3.69453C11.2788 3.54269 11.1973 3.39709 11.0799 3.25623C10.9924 3.15212 10.8261 3.07229 10.6871 3.1623C10.2644 3.43702 10.0003 3.9176 10.0303 4.39583C10.0466 4.64471 10.4144 4.69168 10.5036 4.45454C10.5825 4.2432 10.628 4.01465 10.754 3.82918C10.8321 4.0311 10.8595 4.24167 10.8912 4.47334C10.9273 4.74258 11.3303 4.91243 11.5009 4.62441C11.6321 4.40293 11.7573 4.17046 11.9443 3.98496C12.1072 4.13915 12.2195 4.32701 12.3156 4.52893C12.4468 4.80444 12.8438 4.67058 12.9381 4.45457C12.9681 4.38648 13.0093 4.32621 13.0556 4.26907C13.1928 4.46701 13.3703 4.63374 13.6258 4.71824Z" fill="#8CC8BE"/>
<path d="M13.9311 4.35592C14.0134 4.53124 13.8745 4.80048 13.6259 4.7183C13.3703 4.63375 13.1928 4.46706 13.0556 4.26902C13.0093 4.32617 12.9682 4.38643 12.9381 4.45452C12.8438 4.67054 12.4468 4.80439 12.3156 4.52888C12.2196 4.32693 12.1072 4.13911 11.9443 3.98492C11.7574 4.17042 11.6322 4.40288 11.501 4.62437C11.3303 4.91239 10.9273 4.74254 10.8913 4.4733C10.8596 4.24163 10.8321 4.03109 10.7541 3.82914C10.628 4.01464 10.5826 4.24319 10.5037 4.45449C10.4145 4.69163 10.0466 4.6447 10.0303 4.39579C10.0003 3.91756 10.2644 3.43698 10.6872 3.16226C10.8261 3.07225 10.9924 3.15208 11.0799 3.25619C11.1974 3.39708 11.2788 3.54265 11.3415 3.69448C11.4632 3.55283 11.6013 3.42212 11.7668 3.30783C11.8542 3.24757 12.0223 3.25068 12.1098 3.30783C12.3164 3.44245 12.4862 3.59744 12.6286 3.77432C12.7109 3.68666 12.8026 3.60291 12.903 3.51837C13.1062 3.34617 13.3772 3.43933 13.4741 3.65611C13.589 3.91447 13.8128 4.10389 13.9311 4.35592Z" fill="#280412"/>
<path d="M13.8951 27.3967C13.8977 27.576 13.8977 27.7951 13.9303 28.008C13.0616 27.8491 12.193 27.6949 11.3235 27.5416C11.3072 27.3294 11.2558 27.1118 11.2463 27.0031C11.2137 26.5945 11.2643 26.211 11.3226 25.8188C12.2273 25.9597 13.132 26.0975 14.0366 26.236C13.8951 26.6039 13.8891 27.0485 13.8951 27.3967Z" fill="#8CC8BE"/>
<path d="M10.7995 11.5747C10.7609 11.6247 10.7257 11.6733 10.6949 11.7171C10.4154 12.1179 10.2284 12.5867 10.1152 13.0485C9.98916 13.5682 9.87427 14.3219 10.0612 14.9207C10.0329 14.9175 10.0037 14.9152 9.97543 14.912C9.64444 14.8815 9.31345 14.8557 8.98247 14.8298C8.56572 14.2781 8.52372 13.5995 8.66089 12.9404C8.76808 12.4246 8.97044 11.7797 9.43177 11.4181C9.88713 11.4714 10.3433 11.5246 10.7995 11.5747Z" fill="#FAC950"/>
<path d="M10.6262 25.7101C10.5328 25.9926 10.5096 26.3041 10.4942 26.5867C10.4847 26.7628 10.4564 27.09 10.4899 27.3936C9.94279 27.2966 9.39571 27.1987 8.84863 27.0993C8.52534 27.0398 8.20122 26.9757 7.87706 26.9092C7.85134 26.3597 7.91307 25.8244 7.96539 25.2804C8.85117 25.4291 9.73785 25.5707 10.6262 25.7101Z" fill="#FAC950"/>
<path d="M9.18906 19.7914C9.45831 19.8086 9.72669 19.825 9.99598 19.8407C9.41202 20.5592 9.05959 21.4006 9.10247 22.3257C9.12391 22.8001 9.58611 23.9678 9.5921 23.9788C9.40602 23.9639 9.03732 23.9091 8.85124 23.8943C8.84608 23.8888 8.84095 23.8833 8.83496 23.8778C8.73376 23.7878 8.26644 23.153 8.18584 22.9754C8.02291 22.6177 8.01092 22.217 8.03577 21.8366C8.06063 21.4499 8.08981 21.057 8.31618 20.7189C8.53566 20.3917 8.93696 20.1186 9.18906 19.7914Z" fill="#D36448"/>
<path d="M8.25269 19.7295C8.25182 19.7303 8.25099 19.7303 8.25011 19.731C7.98943 19.9416 7.74932 20.1686 7.57353 20.4448C7.29483 20.8824 7.23567 21.406 7.19366 21.9038C7.15249 22.3984 7.20224 22.9009 7.42774 23.3565C7.47062 23.4426 7.65412 23.729 7.70899 23.8096C7.17048 23.7783 4.49164 23.5334 3.83478 23.3658C3.63755 22.6215 3.52178 21.8576 3.47549 21.0945C3.44889 20.6476 3.43603 20.192 3.49093 19.7459C3.5115 19.5792 3.55354 19.4156 3.59725 19.2528C3.88453 19.2951 4.17606 19.3248 4.45389 19.3624C5.16303 19.4579 5.87476 19.5354 6.58822 19.5995C7.14225 19.6488 7.69703 19.6903 8.25269 19.7295ZM6.46311 21.0233C6.94505 21.1626 7.1534 20.4683 6.6715 20.3329C6.07468 20.1662 5.42639 20.1866 4.81674 20.0692C4.60835 20.0292 4.36228 20.1584 4.37514 20.3768C4.40773 20.8988 4.27481 21.4107 4.2448 21.9304C4.22594 22.2654 4.18993 22.933 4.65297 23.0285C4.755 23.0496 4.86136 23.0144 4.91623 22.9307C5.03112 22.7554 4.96168 22.6419 4.92738 22.4548C4.8845 22.2255 4.90507 21.986 4.92909 21.7551C4.96426 21.424 5.02771 21.0953 5.05772 20.7642C5.52843 20.8417 6.00433 20.8902 6.46311 21.0233Z" fill="#FAC950"/>
<path d="M8.09238 3.71167C8.12327 4.15232 8.22101 4.60786 8.43623 5.00467C8.04264 4.97571 7.64392 4.95379 7.24861 4.91545C6.98623 4.44034 6.86875 3.89246 6.83787 3.36651C6.80615 2.84055 6.90989 2.367 6.99993 1.86609C7.42612 1.88801 7.85227 1.91385 8.27759 1.94436C8.07439 2.49615 8.05466 3.19198 8.09238 3.71167Z" fill="#08736D"/>
<path d="M8.57346 11.3211C8.23302 11.7985 8.05809 12.4396 7.98008 12.9115C7.88491 13.4915 7.88233 14.2038 8.16703 14.765C7.62253 14.7196 7.07886 14.6664 6.53864 14.5865C5.93153 14.4965 5.33815 14.3697 4.75676 14.1865C4.36404 14.0621 4.18054 13.6911 4.0639 13.3428C3.8058 12.5749 3.87182 11.671 4.41033 11.026C5.04488 11.0972 5.69657 11.1019 6.27197 11.1293C7.04281 11.1662 7.80857 11.2382 8.57346 11.3211ZM7.5436 12.9139C7.80428 12.5147 7.71511 11.9911 7.36523 11.6608C7.14485 11.4534 6.84899 11.3352 6.53944 11.2953C6.2582 11.2593 4.76098 11.1356 4.76698 12.3543C4.77039 12.8849 5.44782 13.2567 5.9872 13.3749C6.54718 13.497 7.22635 13.4 7.5436 12.9139Z" fill="#D36448"/>
<path d="M7.36525 11.6608C7.7151 11.9911 7.8043 12.5147 7.54363 12.9139C7.22634 13.3999 6.54721 13.497 5.98726 13.3749C5.44788 13.2567 4.77046 12.8849 4.76705 12.3543C4.76105 11.1356 6.25822 11.2593 6.5395 11.2953C6.84902 11.3352 7.14487 11.4534 7.36525 11.6608ZM6.87304 12.719C7.11399 12.5382 7.05741 12.2134 6.83532 12.0404C6.65694 11.9011 6.44946 11.9042 6.23163 11.876C6.08501 11.8565 5.33811 11.9293 5.30381 12.1461C5.27808 12.3065 5.43157 12.4685 5.5525 12.564C5.86205 12.8098 6.51632 12.9867 6.87304 12.719Z" fill="#280412"/>
<path d="M7.32236 25.1715C7.25975 25.3954 7.23831 25.6372 7.20917 25.8399C7.16717 26.1303 7.11401 26.445 7.11055 26.7518C6.39455 26.6039 5.67596 26.4599 4.95395 26.355C4.9831 26.11 4.93339 25.8337 4.95054 25.6044C4.97198 25.3296 5.02942 25.0416 5.03542 24.759C5.48047 24.8459 5.92806 24.9258 6.37227 25.0056C6.68865 25.0619 7.00507 25.1167 7.32236 25.1715Z" fill="#8CC8BE"/>
<path d="M6.83532 12.0405C7.05741 12.2135 7.11402 12.5383 6.87304 12.7191C6.51633 12.9868 5.86205 12.8099 5.5525 12.5641C5.43161 12.4686 5.27809 12.3066 5.30382 12.1461C5.33812 11.9293 6.08501 11.8565 6.23163 11.8761C6.44947 11.9043 6.65698 11.9012 6.83532 12.0405Z" fill="#FAC950"/>
<path d="M6.67144 20.333C7.15337 20.4684 6.94498 21.1627 6.46306 21.0233C6.00431 20.8903 5.52838 20.8417 5.0576 20.7643C5.02759 21.0953 4.96414 21.4241 4.92897 21.7551C4.90495 21.986 4.88439 22.2255 4.92726 22.4549C4.96156 22.6419 5.031 22.7554 4.91611 22.9307C4.86124 23.0145 4.75488 23.0497 4.65285 23.0286C4.18982 22.9331 4.22583 22.2654 4.24469 21.9305C4.2747 21.4107 4.40762 20.8989 4.37502 20.3768C4.36216 20.1584 4.60827 20.0293 4.81662 20.0692C5.42638 20.1866 6.07462 20.1663 6.67144 20.333Z" fill="#280412"/>
<path d="M6.17063 3.42379C6.19036 3.88871 6.25722 4.35676 6.41587 4.79821C6.18262 4.7528 5.95196 4.6941 5.72729 4.61662C5.70069 4.608 5.67584 4.60332 5.65098 4.60097C5.59437 4.48903 5.54037 4.2824 5.52322 4.2237C5.43405 3.92394 5.38089 3.61476 5.34742 3.30638C5.29939 2.86573 5.2145 2.26306 5.38343 1.81299C5.70073 1.8169 6.01715 1.82552 6.33357 1.83727C6.15606 2.33818 6.15094 2.94556 6.17063 3.42379Z" fill="#8CC8BE"/>
<path d="M5.41096 16.3374C5.28661 16.7029 5.25831 17.1201 5.20002 17.4731C5.13741 17.8519 5.07655 18.2401 5.05511 18.6275C5.00108 18.6213 4.94621 18.6158 4.89218 18.6095C4.71209 18.5884 4.53117 18.568 4.34851 18.5469C4.36224 17.7674 4.27561 16.987 4.28848 16.2083C4.66148 16.2591 5.03534 16.3014 5.41096 16.3374Z" fill="#08736D"/>
<path d="M4.41284 24.6314C4.33824 24.975 4.31767 25.3413 4.27908 25.6763C4.26709 25.7812 4.23533 26.1952 4.23533 26.1952L3.78341 26.0074C3.78341 26.0074 3.53646 25.6004 3.54158 25.2802C3.54758 24.9406 3.78599 24.5915 3.78341 24.4843C3.99264 24.5367 4.20187 24.586 4.41284 24.6314Z" fill="#FAC950"/>
<path d="M2.97729 27.8719C3.34344 27.9424 3.70957 28.0128 4.07489 28.084C3.98401 28.6812 3.97973 29.3027 3.97028 29.8999C3.96686 30.1206 3.93598 30.483 3.96599 30.8297C3.90684 30.8156 3.84852 30.8031 3.78936 30.789C3.44551 30.7084 3.1025 30.6262 2.75952 30.5432C2.8504 29.6565 2.83579 28.7525 2.97729 27.8719Z" fill="#8CC8BE"/>
<path d="M3.89142 16.1528C3.78339 16.5144 3.77736 16.9323 3.75421 17.2759C3.72678 17.6727 3.72761 18.0688 3.74476 18.4656C3.55869 18.4358 3.37519 18.4022 3.19427 18.3599C2.94046 18.2997 2.81695 18.2597 2.78952 18.0241C2.74406 17.6406 2.81695 17.2501 2.7655 16.8634C2.72433 16.5511 2.64032 16.2357 2.61285 15.9187C3.02105 16.044 3.4798 16.0956 3.89142 16.1528Z" fill="#08736D"/>
<path d="M3.88717 7.04531C3.6685 7.54938 3.58191 8.13795 3.55702 8.65452C3.533 9.17815 3.61875 9.67671 3.78681 10.162C3.53729 10.1174 3.28774 10.0618 3.03909 9.99292C2.55717 9.08658 2.68322 7.86715 2.75869 6.80579C3.13258 6.89739 3.50898 6.97643 3.88717 7.04531Z" fill="#FAC950"/>
<path d="M2.48935 27.7795C2.19095 28.624 2.11977 29.4811 1.99714 30.3577C1.73305 30.2912 1.46892 30.2247 1.20567 30.1574C1.08648 30.1269 0.920135 30.1034 0.794922 30.0681C0.852369 29.64 0.880675 29.208 0.901242 28.7775C0.921808 28.3548 0.948406 27.9197 0.905529 27.4946C1.43378 27.5862 1.962 27.6809 2.48935 27.7795Z" fill="#08736D"/>
</svg>
